<svg width="342" height="322" viewBox="0 0 342 322" fill="none" xmlns="http://www.w3.org/2000/svg">
<path d="M269.192 200.487C256.878 189.852 255.716 172.429 257.916 157.122C258.282 154.566 258.298 151.825 259.772 149.708C261.246 147.592 264.295 146.357 266.494 147.685C268.319 148.789 268.919 151.091 269.793 153.045C270.97 155.642 272.861 157.858 275.251 159.439C276.811 160.459 278.792 161.2 280.515 160.482C282.855 159.501 283.487 156.466 283.744 153.917C284.233 149.16 284.721 144.4 285.21 139.638C285.467 137.089 285.748 134.479 286.809 132.147C287.869 129.814 289.889 127.752 292.416 127.327C294.942 126.903 297.82 128.633 298.062 131.189C298.044 132.254 297.953 133.318 297.789 134.371C297.75 135.437 298.116 136.688 299.099 137.066C300.081 137.444 301.204 136.865 302.062 136.201C305.002 133.884 307.162 130.795 309.213 127.66C311.264 124.524 313.261 121.335 315.982 118.786C318.704 116.237 322.276 114.361 325.988 114.546C329.7 114.731 333.388 117.411 333.926 121.095C334.465 124.779 331.961 128.216 329.333 130.88C325.445 134.84 320.998 138.222 316.131 140.92C315.198 141.311 314.415 141.984 313.892 142.843C313.152 144.48 314.594 146.349 316.232 147.083C318.08 147.924 320.186 147.948 322.166 148.396C324.147 148.843 326.237 149.94 326.791 151.917C327.571 154.636 325.06 157.138 322.697 158.698C317.964 161.819 312.726 164.113 307.209 165.479C305.244 165.957 303.177 166.351 301.509 167.502C299.84 168.653 298.662 170.854 299.395 172.754C300.128 174.653 302.429 175.48 304.456 175.325C306.484 175.171 308.356 174.29 310.336 173.781C314.025 172.839 318.571 173.565 320.474 176.87C321.753 179.017 321.582 181.805 320.568 184.099C319.45 186.347 317.888 188.351 315.975 189.991C309.637 196.067 301.784 200.369 293.219 202.456C284.703 204.394 277.006 204.348 269.169 200.525" fill="#F5F5F5"/>
<path d="M274.246 191.273C277.733 183.179 281.685 175.288 286.084 167.641L289.515 161.602C290.646 159.625 291.761 157.663 292.977 155.81C295.326 152.242 297.875 148.808 300.612 145.523C303.185 142.379 305.743 139.491 308.161 136.804C310.578 134.116 312.879 131.668 315.078 129.513C318.527 126.102 322.242 122.967 326.191 120.138C327.586 119.134 328.694 118.392 329.45 117.898L330.316 117.342C330.413 117.276 330.515 117.216 330.62 117.164C330.54 117.248 330.448 117.321 330.347 117.38L329.505 117.975C328.764 118.493 327.68 119.265 326.3 120.292C322.403 123.172 318.73 126.337 315.312 129.76C313.136 131.923 310.859 134.394 308.449 137.074C306.04 139.754 303.513 142.665 300.947 145.808C298.248 149.082 295.731 152.498 293.406 156.041C292.197 157.879 291.067 159.826 289.959 161.81L286.544 167.85C282.149 175.48 278.192 183.349 274.69 191.42" fill="#E0E0E0"/>
<path d="M293.11 155.802C293.026 155.437 292.981 155.064 292.977 154.69C292.923 153.971 292.868 152.921 292.829 151.601C292.743 149.021 292.743 145.461 292.759 141.561C292.775 137.661 292.759 134.07 292.603 131.521C292.541 130.231 292.478 129.204 292.431 128.478C292.391 128.103 292.391 127.725 292.431 127.351C292.536 127.711 292.604 128.081 292.634 128.455C292.743 129.173 292.852 130.208 292.962 131.498C293.172 134.07 293.274 137.676 293.258 141.584C293.242 145.492 293.211 148.967 293.188 151.624V154.713C293.207 155.078 293.181 155.443 293.11 155.802Z" fill="#E0E0E0"/>
<path d="M326.908 153.246C326.462 153.287 326.013 153.287 325.567 153.246C324.709 153.246 323.469 153.199 321.933 153.246C318.86 153.246 314.626 153.392 309.954 153.755C305.283 154.118 301.072 154.651 298.031 155.107C296.51 155.331 295.286 155.539 294.443 155.678C294.006 155.779 293.559 155.839 293.11 155.856C293.531 155.702 293.964 155.583 294.404 155.501C295.247 155.3 296.463 155.037 297.984 154.775C301.01 154.226 305.236 153.655 309.915 153.284C313.915 152.954 317.928 152.827 321.94 152.906C323.5 152.906 324.717 153.022 325.575 153.091C326.023 153.102 326.469 153.154 326.908 153.246Z" fill="#E0E0E0"/>
<path d="M274.714 190.717C274.633 190.585 274.572 190.442 274.534 190.292C274.417 189.953 274.269 189.52 274.097 189.041C273.723 187.96 273.224 186.377 272.624 184.407C271.438 180.477 269.964 175.001 268.428 168.962C266.892 162.922 265.472 157.377 264.365 153.462C263.819 151.539 263.375 149.963 263.047 148.789C262.899 148.28 262.79 147.863 262.688 147.515C262.587 147.168 262.579 147.067 262.603 147.06C262.68 147.193 262.74 147.336 262.782 147.484C262.899 147.824 263.047 148.257 263.219 148.735C263.593 149.817 264.1 151.4 264.693 153.369C265.878 157.292 267.352 162.776 268.888 168.815C270.424 174.854 271.844 180.399 272.951 184.315C273.497 186.238 273.941 187.813 274.269 188.949C274.417 189.458 274.526 189.883 274.628 190.223C274.729 190.563 274.737 190.709 274.714 190.717Z" fill="#E0E0E0"/>
<path d="M320.264 181.365C320.119 181.427 319.967 181.471 319.812 181.496L318.486 181.782L313.604 182.793C309.487 183.651 303.809 184.894 297.539 186.276C291.27 187.659 285.577 188.848 281.444 189.62C279.369 190.007 277.693 190.3 276.531 190.478L275.189 190.678C275.031 190.698 274.872 190.698 274.714 190.678C274.861 190.615 275.015 190.571 275.174 190.547L276.499 190.261L281.373 189.25C285.491 188.392 291.168 187.149 297.438 185.767C303.708 184.384 309.401 183.195 313.542 182.423C315.608 182.037 317.285 181.743 318.447 181.565L319.788 181.365C319.946 181.346 320.106 181.346 320.264 181.365Z" fill="#E0E0E0"/>
<path d="M12.5087 68.4404C12.5087 68.4404 7.65028 70.3866 13.2495 80.604C18.8487 90.8214 22.6933 95.8567 22.6933 95.8567C22.6933 95.8567 23.6993 98.2431 21.664 98.6678C19.6286 99.0926 15.1133 98.4979 14.2711 100.985C13.4289 103.471 15.3395 105.951 19.2153 107.974C23.0911 109.997 31.4119 114.755 32.1684 115.187C32.9248 115.62 33.6579 116.732 32.3243 117.226C30.9908 117.72 20.8919 119.041 21.8043 123.744C22.7167 128.447 34.4455 132.394 35.7244 132.811C37.0034 133.228 37.2841 133.784 37.2295 134.471C37.1749 135.159 33.7047 135.282 30.8505 135.769C27.9962 136.255 24.7677 137.313 25.5242 139.985C26.2806 142.658 33.3225 148.133 50.0813 149.33L57.8796 149.376L61.9816 142.742C69.78 128.023 68.852 119.218 66.9569 117.172C65.0619 115.125 62.4573 117.272 60.5233 119.412C58.5893 121.551 56.6787 124.377 56.0392 124.084C55.3997 123.79 55.1268 123.25 55.4153 121.945C55.7039 120.64 58.5347 108.715 55.0254 105.456C51.5162 102.197 45.0123 109.997 43.8659 110.862C42.7196 111.727 42.1815 110.499 42.2049 109.658C42.2283 108.816 42.5636 99.2857 42.8756 94.984C43.1875 90.6823 42.1815 87.7631 39.4989 87.1298C36.8162 86.4965 35.0304 90.636 33.5877 92.1188C32.145 93.6016 30.6399 91.4932 30.6399 91.4932C30.6399 91.4932 28.355 85.6161 22.5608 75.4991C16.7666 65.3821 12.4229 68.5485 12.4229 68.5485" fill="#EBEBEB"/>
<path d="M58.332 151.184C54.1053 143.739 46.8216 130.378 40.5127 118.94C34.2038 107.503 28.4486 97.1541 24.2843 89.6861L19.3167 80.8511C18.7396 79.8085 18.2795 79.0053 17.9676 78.4415C17.8194 78.1789 17.7024 77.9704 17.6244 77.816C17.584 77.746 17.5475 77.6738 17.5153 77.5997L17.6478 77.8083L18.0144 78.4184L19.4025 80.8047C20.6034 82.8745 22.3269 85.8787 24.4324 89.6088C28.6591 97.0537 34.4065 107.372 40.7232 118.825C47.0399 130.278 54.3002 143.631 58.4801 151.099" fill="#E0E0E0"/>
<path d="M20.5565 102.081C20.7435 102.106 20.9268 102.152 21.1024 102.22C21.4533 102.321 21.9524 102.483 22.5685 102.684C23.7928 103.093 25.4773 103.703 27.3177 104.414L31.9967 106.236L33.4238 106.785C33.6054 106.838 33.7805 106.91 33.9463 107.001C33.7573 106.978 33.5715 106.934 33.3926 106.87C33.0495 106.769 32.5504 106.607 31.9344 106.398C30.71 105.974 29.0334 105.34 27.1929 104.638L22.4671 102.846L21.0322 102.305C20.8665 102.247 20.7071 102.172 20.5565 102.081Z" fill="#E0E0E0"/>
<path d="M34.5 106.499C34.4377 106.499 35.5606 102.985 37.0033 98.6987C38.446 94.4125 39.6626 90.9758 39.7249 90.9758C39.7873 90.9758 38.6722 94.482 37.2295 98.7682C35.7868 103.054 34.5702 106.514 34.5 106.499Z" fill="#E0E0E0"/>
<path d="M43.3981 124.493C43.4769 124.318 43.5792 124.155 43.7022 124.007L44.5912 122.732C45.3711 121.651 46.3771 120.161 47.4532 118.469C48.5294 116.778 49.4574 115.226 50.1125 114.09L50.8923 112.747C50.9742 112.574 51.0791 112.413 51.2042 112.268C51.1411 112.449 51.0628 112.625 50.9703 112.793C50.8143 113.125 50.5648 113.565 50.2528 114.175C49.6368 115.334 48.6932 116.909 47.6482 118.601C46.6032 120.292 45.5114 121.775 44.7238 122.833C44.3339 123.358 44.0063 123.775 43.7724 124.061C43.6628 124.217 43.5373 124.362 43.3981 124.493Z" fill="#E0E0E0"/>
<path d="M29.899 123.25C30.0753 123.231 30.2531 123.231 30.4293 123.25L31.872 123.327C33.0964 123.404 34.7808 123.52 36.6368 123.667C38.4929 123.814 40.1773 123.968 41.3939 124.084L42.8366 124.238C43.0134 124.247 43.1887 124.275 43.3591 124.323C43.1828 124.342 43.005 124.342 42.8288 124.323L41.3861 124.246C40.1617 124.169 38.4773 124.053 36.6213 123.899C34.7652 123.744 33.0808 123.605 31.8642 123.489L30.4215 123.335C30.2444 123.328 30.0689 123.3 29.899 123.25Z" fill="#E0E0E0"/>
<path d="M35.7089 140.117C35.9372 140.097 36.1668 140.097 36.3951 140.117L38.2433 140.209C39.803 140.294 41.971 140.433 44.3573 140.595C46.7436 140.758 48.8959 140.928 50.4556 141.059L52.3038 141.229C52.5321 141.241 52.759 141.272 52.9823 141.321C52.7566 141.342 52.5295 141.342 52.3038 141.321L50.4478 141.229C48.8881 141.144 46.7202 141.005 44.3339 140.835C41.9476 140.665 39.7952 140.51 38.2355 140.379L36.3873 140.209C36.159 140.197 35.9321 140.166 35.7089 140.117Z" fill="#E0E0E0"/>
<path d="M52.5767 141.182C52.6796 140.963 52.8023 140.754 52.9432 140.557L54.0194 138.904C54.924 137.506 56.1561 135.568 57.4662 133.382C58.7764 131.197 59.9071 129.204 60.7182 127.752C61.1081 127.057 61.4356 126.478 61.6774 126.03C61.7883 125.815 61.916 125.608 62.0595 125.412C61.9784 125.641 61.8793 125.863 61.7632 126.076C61.5604 126.493 61.2563 127.096 60.8741 127.837C60.0943 129.312 58.9869 131.328 57.6768 133.506C56.3667 135.684 55.1033 137.622 54.1597 138.997C53.6918 139.684 53.3019 140.24 53.0212 140.611C52.8908 140.814 52.742 141.006 52.5767 141.182Z" fill="#E0E0E0"/>
<path d="M276.226 230.97L267.672 274.592L333.025 287.161L341.58 243.538L276.226 230.97Z" fill="#EBEBEB"/>
<path d="M341.694 244.113C341.466 244.288 341.223 244.443 340.969 244.577L338.824 245.805L330.932 250.23L304.722 264.679L304.503 264.795L304.347 264.61L303.957 264.162L284.321 241.179L278.426 234.166L276.866 232.243C276.67 232.026 276.495 231.79 276.343 231.54C276.566 231.732 276.772 231.941 276.959 232.166L278.62 234.012L284.672 240.901C289.764 246.793 296.736 254.864 304.441 263.768L304.831 264.224L304.457 264.154L330.753 249.867L338.738 245.604C339.643 245.133 340.368 244.754 340.922 244.476C341.168 244.334 341.426 244.212 341.694 244.113Z" fill="#E0E0E0"/>
<path d="M267.781 275.167C267.679 275.043 273.762 270.008 281.373 263.923C288.984 257.837 295.247 253.018 295.356 253.149C295.465 253.28 289.374 258.308 281.755 264.394C274.136 270.479 267.859 275.267 267.781 275.167Z" fill="#E0E0E0"/>
<path d="M317.183 256.779C317.332 256.702 321.028 263.575 325.426 272.124C329.825 280.674 333.287 287.663 333.139 287.74C332.991 287.817 329.294 280.944 324.888 272.395C320.482 263.845 317.035 256.856 317.183 256.779Z" fill="#E0E0E0"/>
<path d="M10.1065 231.386C11.2061 230.717 12.3917 230.197 13.6314 229.841L14.3566 226.389L20.2444 226.281L21.0944 229.71C22.3417 230.015 23.5427 230.483 24.6661 231.1L27.6451 229.169L31.8796 233.224L30.008 236.267C30.6825 237.351 31.2071 238.52 31.5676 239.742L35.0535 240.46L35.1549 246.291L31.7002 247.133C31.3935 248.369 30.9214 249.558 30.2965 250.67L32.2461 253.62L28.1519 257.821L25.1106 255.991C24.011 256.66 22.8254 257.18 21.5857 257.536L20.8605 260.988L14.9727 261.096L14.1227 257.667C12.8749 257.363 11.6737 256.896 10.551 256.277L7.57202 258.208L3.32971 254.153L5.17792 251.141C4.50212 250.052 3.97751 248.878 3.61825 247.65L0.13237 246.932L0.0231934 241.101L3.49347 240.244C3.80156 239.009 4.27357 237.82 4.89718 236.707L2.94759 233.757L7.04173 229.556L10.0831 231.386H10.1065ZM13.2258 239.155C12.3686 240.051 11.7979 241.178 11.5857 242.394C11.3736 243.61 11.5293 244.861 12.0335 245.989C12.5376 247.118 13.3675 248.074 14.4188 248.736C15.4702 249.399 16.6959 249.739 17.9418 249.713C19.1876 249.687 20.398 249.297 21.4206 248.592C22.4431 247.886 23.2321 246.897 23.6883 245.749C24.1446 244.601 24.2476 243.344 23.9845 242.138C23.7213 240.932 23.1038 239.829 22.2096 238.97C21.6103 238.397 20.9025 237.947 20.1269 237.646C19.3513 237.345 18.5233 237.199 17.6905 237.216C16.8577 237.233 16.0365 237.414 15.2743 237.746C14.5121 238.079 13.8239 238.558 13.2492 239.155H13.2258Z" fill="#E0E0E0"/>
<path d="M13.2495 239.155C13.5783 238.755 13.9708 238.411 14.4114 238.136C15.6285 237.349 17.0848 237.007 18.529 237.17C19.6047 237.285 20.6336 237.667 21.5199 238.282C22.4062 238.896 23.1211 239.723 23.5979 240.684C24.1656 241.825 24.38 243.107 24.214 244.368C24.0338 245.727 23.4174 246.993 22.4556 247.979C21.4938 248.965 20.2375 249.619 18.8721 249.844C18.2291 249.948 17.5733 249.948 16.9303 249.844C16.31 249.764 15.7054 249.592 15.1367 249.334C14.1489 248.897 13.289 248.22 12.6372 247.365C11.9853 246.51 11.5628 245.506 11.4091 244.445C11.1935 243.019 11.4887 241.563 12.2435 240.329C12.5028 239.875 12.8376 239.468 13.2339 239.124C13.2339 239.124 12.8518 239.541 12.3605 240.399C11.6842 241.621 11.4399 243.031 11.6664 244.407C11.8148 245.347 12.1863 246.239 12.7504 247.009C13.3919 247.895 14.2618 248.594 15.2693 249.033C15.8117 249.273 16.3873 249.432 16.9771 249.504C17.5888 249.587 18.21 249.574 18.8175 249.465C20.1047 249.248 21.2879 248.628 22.1942 247.697C23.1006 246.766 23.6826 245.573 23.8553 244.291C23.9568 243.688 23.9568 243.072 23.8553 242.468C23.7663 241.889 23.5875 241.326 23.325 240.8C22.8454 239.817 22.1073 238.979 21.1882 238.375C20.3859 237.852 19.4688 237.526 18.5134 237.425C17.1189 237.245 15.7036 237.536 14.4972 238.252C13.6316 238.769 13.2807 239.194 13.2495 239.155Z" fill="#E0E0E0"/>
<path d="M10.1067 231.386L9.91174 231.285L9.32686 230.953L7.03414 229.61H7.10432L3.03357 233.826V233.718L5.05335 236.653V236.707V236.761C4.43986 237.87 3.9758 239.054 3.67304 240.283V240.352H3.60285L0.148168 241.202L0.249548 241.078C0.28854 242.908 0.327533 244.862 0.366525 246.909L0.249548 246.77L3.74322 247.48H3.829V247.565C4.17959 248.778 4.69095 249.938 5.34969 251.018L5.39648 251.095L5.34969 251.172L3.49367 254.223V254.022C4.8272 255.296 6.2621 256.671 7.73599 258.069H7.52543L10.4966 256.13L10.5902 256.076L10.676 256.122C11.771 256.734 12.9432 257.199 14.1619 257.505H14.2632V257.605C14.5284 258.679 14.8169 259.845 15.1133 261.026L14.9339 260.895L20.8295 260.787L20.6501 260.934C20.8841 259.837 21.1258 258.663 21.3754 257.482V257.373H21.4845C22.7041 257.031 23.8714 256.527 24.9548 255.875L25.0484 255.821L25.142 255.875L28.1833 257.706H27.9572L32.0513 253.504V253.728L30.1017 250.778L30.0394 250.685L30.0939 250.593C30.7429 249.504 31.2388 248.332 31.5678 247.11V247.002H31.677L35.1317 246.168L34.9991 246.337C34.9679 244.345 34.9367 242.399 34.9055 240.499L35.0381 240.661L31.5678 239.912H31.4743V239.819C31.1319 238.607 30.6257 237.445 29.9692 236.367L29.9146 236.282L29.9692 236.205L31.8174 233.193V233.378L27.5907 229.316H27.7622L24.7365 231.247L24.6741 231.293L24.6039 231.255C23.4916 230.637 22.3009 230.169 21.0634 229.864H20.9932V229.795L20.1588 226.366L20.2602 226.443L14.3724 226.52L14.4504 226.459C14.1541 227.833 13.9045 228.961 13.6706 229.903C12.7403 230.16 11.8368 230.504 10.9723 230.93L10.3406 231.255L10.1301 231.363L10.3251 231.231C10.4576 231.147 10.6682 231.023 10.9489 230.876C11.8053 230.424 12.707 230.062 13.6394 229.795L13.5926 229.834C13.7875 228.891 14.0215 227.756 14.3022 226.381V226.32H14.3724L20.2602 226.196H20.346V226.273C20.6189 227.331 20.8997 228.451 21.2116 229.695L21.118 229.61C22.3794 229.913 23.5939 230.383 24.7287 231.007H24.5961L27.5673 229.069L27.6608 229.007L27.7388 229.084L31.989 233.131L32.0747 233.216L32.0123 233.317L30.1719 236.336V236.174C30.8456 237.275 31.37 238.459 31.7316 239.696L31.6068 239.588L35.1005 240.298H35.2253V240.514C35.2565 242.409 35.2929 244.353 35.3345 246.345V246.484H35.2019L31.7394 247.326L31.872 247.195C31.5598 248.446 31.0826 249.651 30.4527 250.778V250.6C31.0921 251.574 31.7472 252.554 32.4023 253.543L32.4802 253.666L32.3789 253.767L28.2925 257.968L28.1911 258.069L28.0664 257.991L25.025 256.169H25.2044C24.0923 256.841 22.8935 257.36 21.6405 257.713L21.7731 257.574C21.5235 258.756 21.274 259.937 21.0478 261.026V261.165H20.8997L15.0119 261.266H14.8715V261.127L14.0293 257.698L14.1619 257.829C12.8976 257.519 11.6808 257.044 10.5434 256.416H10.7228L7.74379 258.347L7.62681 258.424L7.53323 258.331L3.29871 254.269L3.20513 254.184L3.27532 254.076C3.91479 253.025 4.54645 251.991 5.12353 251.064V251.218C4.44797 250.116 3.92348 248.929 3.56386 247.689L3.68084 247.797L0.194959 247.071H0.0857826V246.955C0.0545891 244.896 0.0259946 242.952 0 241.124V241.024H0.0935797L3.49367 240.128L3.40789 240.213C3.72199 238.97 4.19915 237.773 4.8272 236.653V236.761L2.8854 233.803V233.749L2.93219 233.695L7.04974 229.517L9.29567 230.899L9.87275 231.262L10.1067 231.386Z" fill="#E0E0E0"/>
<path d="M52.5222 215.029C53.1797 214.635 53.888 214.331 54.6277 214.125L55.0644 212.055L58.5893 211.994L59.0962 214.048C59.8459 214.229 60.5674 214.509 61.2408 214.882L63.0188 213.724L65.5533 216.149L64.4537 217.956C64.8514 218.607 65.1583 219.308 65.3661 220.041L67.4405 220.435L67.5029 223.926L65.4285 224.428C65.2475 225.168 64.9641 225.88 64.5863 226.544L65.756 228.312L63.3073 230.822L61.4825 229.733C60.8233 230.124 60.1155 230.428 59.377 230.637L58.9402 232.707L55.4154 232.768L54.9085 230.714C54.1608 230.535 53.4418 230.254 52.7717 229.88L50.9859 231.038L48.4514 228.613L49.551 226.806C49.1565 226.153 48.8498 225.452 48.6386 224.721L46.5642 224.296L46.5018 220.806L48.5762 220.304C48.7585 219.561 49.0418 218.847 49.4184 218.18L48.2487 216.419L50.6974 213.909L52.5222 215.029ZM54.4016 219.663C53.8822 220.196 53.5341 220.869 53.4012 221.598C53.2683 222.327 53.3566 223.079 53.655 223.758C53.9533 224.437 54.4484 225.013 55.0775 225.414C55.7066 225.815 56.4415 226.022 57.1893 226.009C57.9372 225.996 58.6643 225.763 59.2789 225.341C59.8935 224.919 60.3679 224.326 60.6421 223.637C60.9163 222.948 60.978 222.193 60.8194 221.47C60.6609 220.746 60.2892 220.085 59.7513 219.57C59.3939 219.228 58.9721 218.959 58.5098 218.779C58.0475 218.598 57.5538 218.51 57.057 218.518C56.5602 218.527 56.07 218.633 55.6144 218.829C55.1587 219.025 54.7466 219.308 54.4016 219.663Z" fill="#F5F5F5"/>
<path d="M54.4015 219.663C54.599 219.419 54.8362 219.211 55.1033 219.045C55.8365 218.579 56.7095 218.377 57.5754 218.473C58.1737 218.533 58.7486 218.735 59.2521 219.06C59.8352 219.446 60.3036 219.979 60.609 220.605C60.7754 220.936 60.8911 221.29 60.9521 221.655C61.0146 222.036 61.0146 222.425 60.9521 222.806C60.8401 223.618 60.4698 224.374 59.895 224.964C59.3202 225.554 58.5706 225.948 57.7548 226.088C57.37 226.15 56.9776 226.15 56.5928 226.088C56.2201 226.045 55.8568 225.944 55.5166 225.787C54.8908 225.501 54.3526 225.056 53.957 224.497C53.6119 224.01 53.3875 223.449 53.3019 222.86C53.1756 222.006 53.3519 221.136 53.801 220.396C53.955 220.125 54.1556 219.882 54.3937 219.678C54.3937 219.678 54.1675 219.917 53.8712 220.45C53.4681 221.183 53.3227 222.028 53.4579 222.852C53.5531 223.456 53.8011 224.026 54.1788 224.51C54.5565 224.993 55.0516 225.374 55.618 225.617C55.9388 225.764 56.2809 225.861 56.6318 225.903C56.9986 225.961 57.3724 225.961 57.7392 225.903C58.5084 225.772 59.2155 225.402 59.7582 224.847C60.3008 224.291 60.6507 223.579 60.7572 222.814C60.8159 222.453 60.8159 222.085 60.7572 221.725C60.7004 221.376 60.5927 221.038 60.4374 220.721C60.1459 220.135 59.7051 219.634 59.1585 219.269C58.5677 218.882 57.8786 218.669 57.1706 218.654C56.4626 218.639 55.7649 218.823 55.1579 219.184C54.8959 219.328 54.6432 219.487 54.4015 219.663Z" fill="#F5F5F5"/>
<path d="M52.5221 215.029L52.4052 214.967L52.0542 214.766C51.7345 214.581 51.2744 214.318 50.6817 213.994L48.2486 216.519V216.45C48.6073 216.983 49.0285 217.577 49.4262 218.211C49.059 218.875 48.7811 219.584 48.5995 220.319V220.358L46.533 220.867L46.5876 220.79C46.5876 221.887 46.6344 223.053 46.6578 224.281L46.5954 224.196L48.6775 224.628H48.7243V224.682C48.9354 225.407 49.2422 226.1 49.6367 226.744V226.791V226.837C49.2936 227.401 48.9193 228.019 48.5294 228.644V228.528C49.3092 229.301 50.1904 230.073 51.0716 230.953H50.9469L52.7249 229.795H52.7795H52.8341C53.4998 230.157 54.2102 230.433 54.9474 230.614H55.0098V230.675C55.1736 231.316 55.3451 232.019 55.5167 232.722L55.4153 232.645L58.9402 232.583L58.8388 232.668C58.9714 232.011 59.1196 231.309 59.2677 230.598V230.536H59.3301C60.0619 230.333 60.7624 230.031 61.4123 229.641H61.4747H61.5293L63.3463 230.729H63.2137L65.6624 228.212V228.343L64.4926 226.582V226.528V226.474C64.8665 225.818 65.1472 225.114 65.3271 224.381V224.319H65.3895L67.4638 223.817L67.3858 223.918C67.3858 222.729 67.3858 221.562 67.3235 220.427L67.4014 220.52L65.3193 220.087H65.2569V220.026C65.0522 219.3 64.7478 218.607 64.3523 217.964V217.917V217.863L65.4674 216.064V216.172L62.9408 213.747H63.0421L61.2563 214.898C60.59 214.529 59.8765 214.251 59.1352 214.071V214.033C58.9558 213.26 58.792 212.612 58.6361 211.978L58.6984 212.025L55.1736 212.071L55.2204 212.032C55.041 212.859 54.8928 213.577 54.7759 214.102C54.2211 214.255 53.683 214.462 53.1694 214.72L52.7873 214.913L52.6625 214.975L52.7795 214.898C52.8575 214.851 52.9822 214.774 53.1538 214.689C53.6655 214.417 54.2037 214.197 54.7603 214.033C54.8772 213.469 55.0098 212.789 55.1814 211.963V211.924L58.7062 211.847H58.753V211.893C58.909 212.527 59.0806 213.198 59.2677 213.94L59.2131 213.894C59.9673 214.076 60.6937 214.356 61.3733 214.728H61.2017L62.9798 213.569H63.0343L63.0811 213.616C63.861 214.388 64.7344 215.16 65.6234 216.041L65.678 216.087V216.149C65.3193 216.736 64.9605 217.338 64.5784 217.956V217.855C64.9818 218.517 65.2939 219.228 65.5064 219.971L65.4362 219.902L67.5262 220.327H67.6042V220.404C67.6042 221.547 67.6042 222.721 67.6666 223.902V223.98H67.5886L65.522 224.482L65.5922 224.404C65.4087 225.155 65.1228 225.877 64.7422 226.551V226.443L65.9119 228.204L65.9587 228.274L65.8963 228.335L63.4477 230.853L63.3853 230.915L63.3151 230.869L61.4903 229.772H61.5994C60.9354 230.171 60.219 230.478 59.4705 230.683L59.5485 230.606C59.3925 231.316 59.2443 232.019 59.1118 232.668V232.753H59.026L55.4933 232.815H55.4075V232.737C55.236 232.027 55.0566 231.324 54.9006 230.683L54.9786 230.76C54.2226 230.573 53.4939 230.29 52.8107 229.919H52.9198L51.0638 231.154L51.0014 231.193L50.9391 231.139L48.4046 228.714L48.35 228.66V228.59C48.7399 227.965 49.1298 227.347 49.4574 226.791V226.883C49.0567 226.225 48.7472 225.516 48.5372 224.775L48.6073 224.837L46.5174 224.404H46.455V224.296C46.455 223.076 46.455 221.902 46.4082 220.806V220.744H46.4706L48.545 220.25L48.4904 220.304C48.6795 219.558 48.9679 218.842 49.3482 218.172V218.234L48.1862 216.465V216.427L50.6505 213.932L51.9996 214.759L52.3428 214.975L52.5221 215.029Z" fill="#F5F5F5"/>
<path d="M63.8532 306.476L62.2467 299.988C59.8831 299.418 57.6086 298.532 55.4855 297.355L49.8317 301.023L41.776 293.3L45.2696 287.593C44.0119 285.533 43.0388 283.315 42.3765 280.998L35.7556 279.631L35.5607 268.549L42.1113 266.958C42.7071 264.605 43.6199 262.342 44.8251 260.231L41.1209 254.632L48.9193 246.654L54.6823 250.122C56.767 248.877 59.009 247.911 61.3499 247.249L62.7224 240.7L73.9131 240.499L75.5118 246.986C77.8757 247.564 80.1519 248.449 82.2808 249.62L87.9268 245.951L95.9747 253.674L92.481 259.381C93.7389 261.445 94.7119 263.665 95.3742 265.985L101.995 267.351L102.19 278.426L95.6394 280.017C95.0546 282.355 94.1605 284.607 92.9801 286.713L96.6844 292.304L88.886 300.274L83.0996 296.892C81.0162 298.137 78.7737 299.101 76.432 299.757L75.0595 306.314L63.8532 306.476ZM55.4777 297.293C57.6049 298.469 59.8815 299.357 62.2467 299.934L63.8532 306.414L74.9971 306.221L76.3696 299.68C78.7143 299.021 80.9593 298.055 83.045 296.807L88.808 300.267L96.544 292.327L92.8476 286.736C94.0338 284.626 94.9307 282.369 95.5146 280.025L102.065 278.48L101.87 267.444L95.3352 266C94.6699 263.678 93.6943 261.455 92.4342 259.389L95.9279 253.682L87.9034 246.021L82.2574 249.681C80.1285 248.511 77.8523 247.626 75.4884 247.048L73.8585 240.514L62.7146 240.707L61.3421 247.249C58.9933 247.902 56.7451 248.869 54.6589 250.122L48.8725 246.693L41.1365 254.632L44.8251 260.231C43.6389 262.341 42.742 264.598 42.1581 266.942L35.6075 268.533L35.8024 279.569L42.4154 280.928C43.0838 283.249 44.0592 285.472 45.3164 287.539L41.8306 293.239L49.8473 300.908L55.4777 297.293ZM69.2185 285.022C66.8612 285.021 64.5564 284.333 62.5911 283.044C60.6259 281.755 59.0872 279.921 58.1667 277.772C57.2463 275.623 56.9849 273.253 57.415 270.958C57.8451 268.663 58.9478 266.544 60.5857 264.865C61.6808 263.74 62.9891 262.841 64.4356 262.218C65.8822 261.595 67.4386 261.261 69.0157 261.235H69.2341C72.3688 261.283 75.3601 262.544 77.5691 264.747C79.778 266.95 81.0293 269.922 81.0558 273.026C81.0823 276.131 79.8818 279.123 77.7107 281.363C75.5397 283.603 72.5703 284.913 69.4368 285.014L69.2185 285.022ZM60.6403 264.88C59.0133 266.553 57.9181 268.661 57.4908 270.945C57.0634 273.228 57.3227 275.585 58.2364 277.724C59.1501 279.863 60.6779 281.689 62.6303 282.975C64.5827 284.261 66.8735 284.951 69.2185 284.96H69.4368C72.56 284.859 75.5197 283.553 77.6835 281.32C79.8473 279.088 81.0438 276.105 81.0173 273.011C80.9909 269.916 79.7435 266.955 77.5418 264.759C75.3401 262.563 72.3586 261.306 69.2341 261.258H69.0001C67.4282 261.279 65.8761 261.61 64.4343 262.23C62.9924 262.851 61.6895 263.749 60.6013 264.872L60.6403 264.88Z" fill="#E0E0E0"/>
<path d="M60.6012 264.88C61.2316 264.117 61.9853 263.462 62.8315 262.942C65.1399 261.459 67.8951 260.812 70.6299 261.111C72.6706 261.328 74.6227 262.052 76.3042 263.218C77.9856 264.383 79.3415 265.951 80.2453 267.776C80.7759 268.828 81.1439 269.952 81.3371 271.112C81.5529 272.319 81.5739 273.552 81.3995 274.765C81.0604 277.345 79.8912 279.747 78.0652 281.617C76.2391 283.486 73.8534 284.724 71.2616 285.145C68.858 285.549 66.3872 285.235 64.1651 284.241C62.2943 283.411 60.6657 282.126 59.4305 280.506C58.1954 278.886 57.3936 276.983 57.0997 274.974C56.6949 272.271 57.2459 269.513 58.6594 267.166C59.1552 266.309 59.7902 265.54 60.5388 264.888C59.9493 265.663 59.4001 266.467 58.8934 267.297C57.604 269.612 57.1371 272.288 57.5676 274.897C57.8753 276.81 58.6625 278.616 59.8573 280.15C61.0521 281.684 62.6163 282.897 64.4068 283.678C66.5159 284.605 68.8559 284.89 71.129 284.496C73.5726 284.085 75.8192 282.91 77.5407 281.144C79.2622 279.378 80.3684 277.113 80.6976 274.68C81.0103 272.419 80.6413 270.116 79.6371 268.062C78.787 266.317 77.5085 264.81 75.9186 263.681C74.3287 262.552 72.4781 261.836 70.5364 261.598C67.8912 261.254 65.2059 261.798 62.9095 263.142C62.1115 263.683 61.3411 264.263 60.6012 264.88Z" fill="#E0E0E0"/>
<path d="M54.6433 250.145L54.269 249.944L53.1616 249.311L48.8101 246.77H48.9505L41.2301 254.779V254.562L44.9577 260.146L45.0201 260.246L44.9655 260.347C43.7954 262.446 42.9117 264.69 42.3374 267.019V267.151H42.2049L35.6464 268.765L35.8336 268.525C35.9038 272.008 35.9818 275.708 36.0597 279.585L35.8414 279.33L42.4856 280.673H42.6572L42.704 280.843C43.3713 283.14 44.3415 285.339 45.5894 287.385L45.6829 287.531L45.5894 287.686L42.0957 293.409L42.0489 293.03L50.0578 300.753H49.6601L55.2983 297.077L55.4699 296.969L55.6415 297.069C57.7481 298.227 60.0008 299.102 62.3403 299.672L62.5352 299.718L62.582 299.911C63.0889 301.95 63.6426 304.167 64.1963 306.406L63.861 306.151L75.036 305.958L74.7085 306.229C75.1452 304.159 75.6131 301.927 76.081 299.68L76.1278 299.471L76.3228 299.417C78.6385 298.764 80.8569 297.811 82.9202 296.583L83.0996 296.482L83.2789 296.59L89.0497 300.05L88.6286 300.104L96.427 292.15L96.388 292.567C95.148 290.682 93.9081 288.821 92.6916 286.975L92.5824 286.805L92.676 286.628C93.8504 284.542 94.7395 282.312 95.3196 279.994L95.3664 279.801L95.5614 279.754L102.12 278.171L101.87 278.488C101.808 274.714 101.748 271.025 101.691 267.421L101.94 267.722L95.3274 266.355L95.1481 266.317L95.0935 266.139C94.4376 263.84 93.4751 261.637 92.2315 259.59L92.1379 259.435L92.2315 259.281C93.4402 257.327 94.571 255.42 95.7407 253.574L95.7875 253.921L87.763 246.198H88.0905L82.4367 249.851L82.3119 249.929L82.1793 249.859C80.0704 248.686 77.8122 247.797 75.4649 247.218H75.3324V247.087L73.7727 240.584L73.9755 240.738L62.8004 240.885L62.9485 240.762C62.3793 243.372 61.9114 245.519 61.5292 247.303V247.372H61.4669C59.7027 247.85 57.9914 248.502 56.3589 249.318L55.1502 249.936C55.0245 250.018 54.8913 250.088 54.7525 250.145C54.8675 250.047 54.993 249.961 55.1268 249.89C55.3841 249.736 55.7662 249.504 56.3043 249.218C57.9269 248.358 59.6364 247.669 61.4045 247.164L61.3265 247.241C61.693 245.457 62.1063 243.302 62.66 240.684V240.568H62.7848L73.9599 240.329H74.1158V240.483C74.6227 242.491 75.153 244.615 75.7457 246.971L75.5819 246.809C77.9734 247.385 80.2762 248.276 82.4289 249.457H82.1716L87.8098 245.774L87.9891 245.666L88.1373 245.805L96.193 253.481L96.3568 253.636L96.2398 253.829C95.1091 255.69 93.9471 257.59 92.7462 259.551V259.25C94.0234 261.337 95.0122 263.584 95.6861 265.93L95.4522 265.714L102.065 267.073L102.315 267.12V267.375C102.377 270.979 102.445 274.668 102.518 278.442V278.696L102.26 278.758L95.7017 280.357L95.9435 280.117C95.3584 282.492 94.4535 284.778 93.2531 286.914V286.566L96.9573 292.157L97.1054 292.381L96.9183 292.574L89.1589 300.545L88.9717 300.738L88.7378 300.599L82.9592 297.131H83.3101C81.1974 298.395 78.9235 299.375 76.5489 300.043L76.7907 299.78C76.3228 302.035 75.8471 304.267 75.4182 306.329L75.3558 306.599H75.0828L63.9156 306.792H63.6426L63.5802 306.537C63.0265 304.298 62.4806 302.074 61.9737 300.043L62.2233 300.282C59.8264 299.692 57.5188 298.791 55.3607 297.602H55.6961L50.05 301.263L49.8317 301.402L49.6523 301.232L41.62 293.509L41.4406 293.339L41.5732 293.131L45.0825 287.423V287.725C43.8096 285.632 42.826 283.38 42.1581 281.029L42.3686 281.23L35.7244 279.901L35.5139 279.855V279.646C35.4515 275.785 35.3969 272.062 35.3423 268.579V268.317L35.5295 268.271L42.0957 266.726L41.9319 266.888C42.5306 264.528 43.4405 262.256 44.638 260.131V260.339L40.9649 254.732L40.8869 254.616L40.9805 254.516L48.7789 246.6L48.8335 246.538L48.9115 246.585L53.1616 249.203L54.2612 249.89C54.3972 249.961 54.5253 250.047 54.6433 250.145Z" fill="#E0E0E0"/>
<path d="M277.928 8.25096L44.1084 25.3773L66.1816 320.929L300.001 303.802L277.928 8.25096Z" fill="white"/>
<path d="M65.8807 321.335V320.948L43.6943 25.0454H44.0843L278.293 7.81561V8.20176L300.417 304.136H300.027L65.8807 321.335ZM44.5288 25.725L66.567 320.508L299.606 303.425L277.568 8.64196L44.5288 25.725Z" fill="#263238"/>
<path d="M256.543 51.8902L256.161 51.9597L255.046 52.0755L250.96 52.4462L237.445 53.5583C232.166 53.9831 227.393 54.3306 223.931 54.5469L219.829 54.7863L218.713 54.8326C218.584 54.8462 218.453 54.8462 218.323 54.8326C218.447 54.7908 218.575 54.7673 218.706 54.7631L219.821 54.6395L223.907 54.2766L237.445 53.1567C242.717 52.7243 247.489 52.3845 250.952 52.1605L255.054 51.9211L256.169 51.8747C256.294 51.8597 256.42 51.8649 256.543 51.8902Z" fill="#008DFF"/>
<path d="M260.318 66.9885C260.318 67.1043 246.593 68.201 229.647 69.4444C212.701 70.6878 198.944 71.5991 198.937 71.491C198.929 71.3828 212.662 70.2862 229.615 69.0428C246.569 67.7994 260.31 66.8804 260.318 66.9885Z" fill="#263238"/>
<path d="M261.355 86.2416C261.355 86.3575 247.63 87.4541 230.684 88.6975C213.738 89.9409 200.013 90.8599 200.013 90.7441C200.013 90.6282 213.738 89.5393 230.692 88.2959C247.645 87.0525 261.347 86.1335 261.355 86.2416Z" fill="#263238"/>
<path d="M261.355 76.6189C261.355 76.7271 247.63 77.8237 230.684 79.0671C213.738 80.3105 200.013 81.2295 200.013 81.1214C200.013 81.0133 213.738 79.9089 230.692 78.6655C247.645 77.4221 261.347 76.5108 261.355 76.6189Z" fill="#263238"/>
<path d="M132.518 211.43C132.518 211.538 125.406 212.156 116.617 212.797C107.828 213.438 100.693 213.878 100.685 213.762C100.677 213.646 107.797 213.044 116.586 212.395C125.374 211.747 132.51 211.322 132.518 211.43Z" fill="#008DFF"/>
<path d="M119.214 229.934C119.214 230.05 109.684 230.838 97.9087 231.703C86.1331 232.567 76.5879 233.17 76.5801 233.062C76.5723 232.954 86.1019 232.166 97.8852 231.301C109.669 230.436 119.206 229.826 119.214 229.934Z" fill="#008DFF"/>
<path d="M196.893 231.502C196.893 231.61 170.098 233.664 137.033 236.089C103.968 238.514 77.1416 240.391 77.1338 240.283C77.126 240.175 103.921 238.113 137.002 235.688C170.083 233.263 196.893 231.394 196.893 231.502Z" fill="#263238"/>
<path d="M120.555 247.89C120.555 247.998 111.026 248.786 99.2578 249.651C87.49 250.516 77.9292 251.126 77.9214 251.01C77.9136 250.894 87.451 250.114 99.2266 249.249C111.002 248.384 120.547 247.774 120.555 247.89Z" fill="#008DFF"/>
<path d="M198.219 249.45C198.219 249.566 171.424 251.62 138.359 254.045C105.294 256.47 78.4673 258.339 78.4595 258.231C78.4517 258.123 105.247 256.068 138.328 253.643C171.408 251.218 198.211 249.342 198.219 249.45Z" fill="#263238"/>
<path d="M121.896 265.838C121.896 265.946 112.367 266.734 100.599 267.599C88.8313 268.464 79.2705 269.074 79.2627 268.966C79.2549 268.857 88.7923 268.062 100.568 267.197C112.343 266.332 121.889 265.722 121.896 265.838Z" fill="#008DFF"/>
<path d="M199.56 267.398C199.56 267.514 172.765 269.568 139.7 271.993C106.635 274.418 79.8086 276.295 79.8008 276.179C79.793 276.063 106.588 274.016 139.669 271.591C172.75 269.166 199.553 267.29 199.56 267.398Z" fill="#263238"/>
<path d="M124.86 284.01C124.86 284.118 115.322 284.906 103.555 285.771C91.7869 286.636 82.2573 287.246 82.2573 287.13C82.2573 287.014 91.7869 286.234 103.562 285.369C115.338 284.504 124.844 283.894 124.86 284.01Z" fill="#008DFF"/>
<path d="M202.524 285.57C202.524 285.686 175.721 287.74 142.656 290.204C109.591 292.667 82.7641 294.505 82.7563 294.389C82.7486 294.274 109.552 292.227 142.625 289.802C175.697 287.377 202.508 285.462 202.524 285.57Z" fill="#263238"/>
<path d="M92.6857 207.86L78.0647 208.93L78.7515 218.127L93.3725 217.056L92.6857 207.86Z" fill="#008DFF"/>
<path d="M88.9923 217.382L83.1206 217.812L83.3357 220.693L89.2075 220.262L88.9923 217.382Z" fill="#008DFF"/>
<path d="M91.4672 219.987C89.8553 220.333 88.2173 220.548 86.5698 220.628C84.9338 220.842 83.2825 220.92 81.6334 220.86C83.246 220.518 84.8838 220.306 86.5308 220.226C88.1672 220.017 89.8179 219.937 91.4672 219.987Z" fill="#008DFF"/>
<path d="M210.829 197.405L219.969 192.439L228.968 195.822L220.538 201.073L210.829 197.405Z" fill="#008DFF"/>
<path d="M213.021 199.483L213.387 205.12L227.471 203.892L226.987 198.456L220.484 202.348L213.021 199.483Z" fill="#008DFF"/>
<path d="M268.639 198.502C268.639 198.618 261.526 199.228 252.738 199.869C243.949 200.51 236.813 200.95 236.806 200.842C236.798 200.734 243.918 200.116 252.706 199.467C261.495 198.818 268.639 198.394 268.639 198.502Z" fill="#008DFF"/>
<path d="M235.987 217.886C235.987 217.994 231.097 218.442 225.069 218.883C219.041 219.323 214.112 219.601 214.104 219.485C214.097 219.369 218.994 218.929 225.022 218.481C231.05 218.033 235.979 217.77 235.987 217.886Z" fill="#263238"/>
<path d="M276.156 222.752C276.156 222.868 262.408 223.964 245.438 225.208C228.469 226.451 214.689 227.37 214.682 227.262C214.674 227.154 228.43 226.049 245.407 224.806C262.384 223.563 276.148 222.675 276.156 222.752Z" fill="#263238"/>
<path d="M237.624 237.935C237.624 238.051 232.743 238.499 226.707 238.939C220.671 239.379 215.789 239.657 215.75 239.541C215.711 239.426 220.632 238.985 226.668 238.537C232.704 238.089 237.617 237.827 237.624 237.935Z" fill="#263238"/>
<path d="M277.794 242.831C277.794 242.947 264.045 244.044 247.076 245.287C230.107 246.531 216.335 247.45 216.319 247.341C216.304 247.233 230.068 246.129 247.045 244.886C264.022 243.642 277.786 242.731 277.794 242.831Z" fill="#263238"/>
<path d="M238.872 257.752C238.872 257.868 233.982 258.316 227.954 258.756C221.926 259.196 217.037 259.466 216.99 259.358C216.943 259.25 221.879 258.802 227.908 258.354C233.936 257.906 238.864 257.644 238.872 257.752Z" fill="#263238"/>
<path d="M279.042 262.656C279.042 262.772 265.293 263.869 248.324 265.112C231.354 266.355 217.575 267.274 217.567 267.166C217.559 267.058 231.315 265.954 248.293 264.71C265.27 263.467 279.034 262.548 279.042 262.656Z" fill="#263238"/>
<path d="M241.102 278.712C241.102 278.82 236.221 279.268 230.185 279.716C224.149 280.164 219.267 280.426 219.228 280.318C219.189 280.21 224.11 279.755 230.146 279.314C236.182 278.874 241.095 278.604 241.102 278.712Z" fill="#263238"/>
<path d="M281.272 283.616C281.272 283.724 267.523 284.821 250.554 286.072C233.585 287.323 219.813 288.234 219.805 288.118C219.797 288.003 233.546 286.914 250.523 285.67C267.5 284.427 281.264 283.5 281.272 283.616Z" fill="#263238"/>
<path d="M205.807 51.3033C206.421 50.9785 206.925 50.4829 207.257 49.8777C207.59 49.2725 207.736 48.5841 207.679 47.8974C207.678 47.4435 207.583 46.9945 207.4 46.5783C207.217 46.1622 206.949 45.7877 206.614 45.4782C206.279 45.1686 205.883 44.9307 205.451 44.779C205.019 44.6273 204.56 44.5652 204.102 44.5965C203.645 44.6278 203.199 44.7518 202.792 44.9609C202.385 45.1699 202.026 45.4596 201.737 45.8118C201.448 46.1641 201.235 46.5714 201.111 47.0086C200.988 47.4457 200.956 47.9034 201.019 48.3531C201.062 49.0377 201.307 49.6948 201.723 50.2435C202.138 50.7923 202.707 51.209 203.358 51.4423C198.297 52.5775 198.944 58.0762 198.944 58.0762L211.055 57.2422C211.055 57.2422 210.93 51.6971 205.807 51.3033Z" fill="#008DFF"/>
<path d="M225.537 129.166C225.537 129.281 220.616 129.729 214.526 130.177C208.435 130.625 203.491 130.895 203.483 130.787C203.475 130.679 208.404 130.224 214.494 129.776C220.585 129.328 225.529 129.057 225.537 129.166Z" fill="#263238"/>
<path d="M226.371 138.812C226.371 138.92 221.451 139.375 215.36 139.823C209.269 140.271 204.325 140.542 204.318 140.426C204.31 140.31 209.238 139.862 215.329 139.422C221.419 138.982 226.364 138.704 226.371 138.812Z" fill="#263238"/>
<path d="M269.153 127.104L233.281 129.737C232.959 129.76 232.641 129.656 232.397 129.448C232.153 129.239 232.002 128.943 231.978 128.625C231.955 128.307 232.06 127.992 232.27 127.75C232.481 127.508 232.78 127.359 233.101 127.335L268.974 124.702C269.133 124.689 269.294 124.708 269.446 124.757C269.598 124.806 269.738 124.885 269.86 124.988C269.981 125.092 270.08 125.218 270.151 125.36C270.223 125.501 270.265 125.656 270.276 125.814C270.289 125.972 270.27 126.131 270.22 126.281C270.171 126.432 270.091 126.571 269.987 126.691C269.882 126.811 269.755 126.909 269.612 126.98C269.469 127.051 269.313 127.093 269.153 127.104Z" fill="#E0E0E0"/>
<path d="M263.913 127.49L233.257 129.737C232.936 129.76 232.618 129.656 232.374 129.448C232.129 129.239 231.979 128.943 231.955 128.625C231.931 128.306 232.036 127.992 232.247 127.75C232.457 127.508 232.756 127.359 233.078 127.335L263.733 125.088C264.055 125.064 264.373 125.168 264.617 125.377C264.861 125.585 265.012 125.881 265.036 126.2C265.057 126.518 264.951 126.832 264.741 127.073C264.531 127.314 264.233 127.464 263.913 127.49Z" fill="#008DFF"/>
<path d="M269.832 136.178L233.959 138.804C233.638 138.827 233.32 138.723 233.076 138.515C232.831 138.306 232.681 138.01 232.657 137.692C232.635 137.374 232.741 137.06 232.951 136.819C233.161 136.577 233.459 136.428 233.78 136.402L269.652 133.776C269.812 133.763 269.972 133.782 270.124 133.832C270.276 133.881 270.417 133.959 270.538 134.063C270.659 134.166 270.758 134.292 270.83 134.434C270.901 134.576 270.944 134.73 270.955 134.888C270.978 135.207 270.873 135.521 270.663 135.763C270.452 136.005 270.153 136.154 269.832 136.178Z" fill="#E0E0E0"/>
<path d="M259.124 136.958L233.936 138.804C233.614 138.827 233.296 138.723 233.052 138.515C232.808 138.306 232.657 138.01 232.633 137.692C232.612 137.374 232.718 137.06 232.928 136.819C233.138 136.577 233.436 136.428 233.756 136.402L258.945 134.556C259.267 134.533 259.584 134.637 259.829 134.845C260.073 135.054 260.223 135.35 260.247 135.668C260.271 135.987 260.166 136.302 259.955 136.543C259.745 136.785 259.446 136.934 259.124 136.958Z" fill="#008DFF"/>
<path d="M227.432 148.658C227.432 148.766 222.511 149.222 216.421 149.662C210.33 150.102 205.386 150.38 205.378 150.272C205.37 150.164 210.299 149.708 216.389 149.261C222.48 148.813 227.424 148.542 227.432 148.658Z" fill="#263238"/>
<path d="M228.266 158.296C228.266 158.412 223.346 158.86 217.255 159.308C211.164 159.756 206.22 160.026 206.213 159.918C206.205 159.81 211.133 159.354 217.224 158.906C223.314 158.458 228.259 158.188 228.266 158.296Z" fill="#263238"/>
<path d="M271.048 146.588L235.176 149.222C234.854 149.245 234.536 149.141 234.292 148.933C234.048 148.724 233.897 148.428 233.873 148.11C233.85 147.791 233.955 147.477 234.165 147.235C234.376 146.993 234.675 146.844 234.996 146.82L270.869 144.187C271.19 144.163 271.508 144.267 271.752 144.476C271.997 144.684 272.147 144.98 272.171 145.299C272.184 145.457 272.165 145.615 272.115 145.766C272.066 145.917 271.986 146.056 271.882 146.176C271.777 146.296 271.65 146.394 271.507 146.465C271.364 146.536 271.208 146.578 271.048 146.588Z" fill="#E0E0E0"/>
<path d="M265.8 146.975L235.152 149.222C234.831 149.245 234.513 149.141 234.269 148.933C234.024 148.724 233.874 148.428 233.85 148.11C233.826 147.791 233.931 147.477 234.142 147.235C234.352 146.993 234.651 146.844 234.973 146.82L265.621 144.573C265.942 144.549 266.26 144.653 266.504 144.862C266.748 145.07 266.899 145.366 266.923 145.685C266.936 145.843 266.917 146.002 266.867 146.152C266.817 146.303 266.738 146.442 266.633 146.562C266.529 146.682 266.401 146.78 266.258 146.851C266.115 146.922 265.959 146.964 265.8 146.975Z" fill="#008DFF"/>
<path d="M271.758 155.663L235.885 158.296C235.564 158.32 235.246 158.216 235.002 158.007C234.758 157.799 234.607 157.503 234.583 157.184C234.559 156.866 234.664 156.551 234.875 156.309C235.086 156.067 235.384 155.918 235.706 155.895L271.578 153.261C271.9 153.238 272.218 153.342 272.462 153.55C272.706 153.759 272.857 154.055 272.881 154.373C272.904 154.692 272.799 155.006 272.589 155.248C272.378 155.49 272.079 155.639 271.758 155.663Z" fill="#E0E0E0"/>
<path d="M261.02 156.451L235.831 158.296C235.509 158.32 235.191 158.216 234.947 158.007C234.703 157.799 234.552 157.503 234.528 157.184C234.505 156.866 234.61 156.551 234.82 156.309C235.031 156.067 235.33 155.918 235.651 155.895L260.84 154.018C261.162 153.995 261.48 154.099 261.724 154.307C261.968 154.516 262.119 154.812 262.142 155.13C262.159 155.29 262.142 155.452 262.094 155.606C262.046 155.759 261.967 155.902 261.862 156.025C261.758 156.148 261.629 156.249 261.484 156.322C261.34 156.395 261.182 156.439 261.02 156.451Z" fill="#008DFF"/>
<path d="M229.522 168.576C229.522 168.691 224.593 169.139 218.503 169.587C212.412 170.035 207.468 170.305 207.46 170.197C207.452 170.089 212.381 169.634 218.472 169.186C224.562 168.738 229.514 168.467 229.522 168.576Z" fill="#263238"/>
<path d="M273.138 166.514L237.266 169.139C236.944 169.163 236.626 169.059 236.382 168.85C236.138 168.642 235.987 168.346 235.963 168.027C235.944 167.71 236.05 167.397 236.26 167.156C236.47 166.915 236.766 166.765 237.086 166.738L272.959 164.112C273.281 164.088 273.6 164.192 273.845 164.4C274.091 164.609 274.243 164.905 274.269 165.224C274.29 165.543 274.184 165.858 273.972 166.099C273.76 166.341 273.46 166.49 273.138 166.514Z" fill="#E0E0E0"/>
<path d="M257.151 167.68L237.234 169.139C236.913 169.163 236.595 169.059 236.351 168.85C236.107 168.642 235.956 168.346 235.932 168.027C235.913 167.71 236.019 167.397 236.229 167.156C236.439 166.915 236.735 166.765 237.055 166.738L256.941 165.278C257.262 165.257 257.579 165.361 257.822 165.569C258.066 165.778 258.217 166.072 258.243 166.39C258.267 166.704 258.166 167.014 257.962 167.255C257.758 167.496 257.467 167.648 257.151 167.68Z" fill="#008DFF"/>
<path d="M213.598 119.342L212.334 117.141C213.132 115.89 213.429 114.388 213.165 112.931C212.901 111.474 212.095 110.168 210.908 109.27C209.72 108.372 208.236 107.946 206.747 108.077C205.258 108.209 203.873 108.887 202.865 109.979C201.856 111.071 201.296 112.497 201.296 113.977C201.296 115.457 201.855 116.884 202.864 117.976C203.873 119.068 205.258 119.746 206.746 119.878C208.235 120.009 209.719 119.584 210.907 118.686L213.598 119.342Z" fill="#008DFF"/>
<path d="M259.694 110.963C259.694 111.079 251.389 111.781 241.118 112.507C230.848 113.233 222.519 113.782 222.511 113.673C222.503 113.565 230.817 112.863 241.087 112.129C251.357 111.395 259.686 110.855 259.694 110.963Z" fill="#008DFF"/>
<path d="M48.7944 25.3388L63.6893 199.838L195.115 190.153L180.922 15.3454L48.7944 25.3388Z" fill="#EBEBEB"/>
<path d="M184.287 10.283L54.0311 19.3127L66.4184 194.561L196.675 185.531L184.287 10.283Z" fill="#FAFAFA"/>
<path d="M66.6606 194.03V193.644L53.575 18.4886H53.9571L184.245 8.90448V9.29063L197.338 184.446H196.948L66.6606 194.03ZM54.4094 19.1991L67.4405 193.204L196.558 183.736L183.527 9.73856L54.4094 19.1991Z" fill="#263238"/>
<path d="M157.753 35.7802C157.727 35.684 157.709 35.5858 157.699 35.4867C157.699 35.2705 157.629 34.9847 157.574 34.6218C157.473 33.8495 157.324 32.7142 157.145 31.2855C156.966 29.8567 156.739 28.0496 156.482 25.9953C156.379 24.8999 156.209 23.8116 155.975 22.7362C155.84 22.1598 155.6 21.6128 155.266 21.1221C154.921 20.6128 154.417 20.2301 153.831 20.0332C153.189 19.8573 152.512 19.8502 151.866 20.0128C151.221 20.1753 150.629 20.5018 150.15 20.9599C149.122 22.0154 148.461 23.3681 148.263 24.8214C147.779 28.033 147.874 31.304 148.543 34.4827C148.848 36.1741 149.175 37.9194 149.565 39.6803C149.917 41.4735 150.563 43.1978 151.476 44.7851C152.433 46.4094 153.938 47.6479 155.726 48.2836C156.629 48.6 157.601 48.6694 158.541 48.4844C159.491 48.2893 160.366 47.8345 161.068 47.1715C162.468 45.814 163.343 44.0129 163.54 42.0821C163.717 40.1934 163.667 38.2905 163.392 36.4135C162.97 32.6756 162.565 29.0767 162.175 25.6014C161.98 23.8869 161.793 22.2111 161.613 20.5892C161.434 18.9674 161.27 17.3842 160.974 15.886C160.726 14.4366 160.277 13.0281 159.64 11.7002C159.053 10.4831 158.198 9.41167 157.137 8.56468C155.253 7.14718 152.917 6.44818 150.555 6.59534C148.77 6.65175 147.052 7.28658 145.666 8.4025C144.815 9.13291 144.17 10.0696 143.794 11.121C143.545 11.8469 143.49 12.2485 143.459 12.2485C143.502 11.8567 143.588 11.4708 143.716 11.0978C144.066 10.0151 144.701 9.04458 145.557 8.28665C146.959 7.12134 148.711 6.44796 150.54 6.37137C152.962 6.19566 155.367 6.8953 157.309 8.34071C158.415 9.20454 159.308 10.3057 159.921 11.5612C160.579 12.9127 161.046 14.347 161.309 15.8242C161.606 17.3688 161.777 18.9134 161.972 20.5506C162.167 22.1879 162.347 23.8483 162.549 25.5628C162.939 28.9918 163.329 32.5984 163.781 36.3285C164.068 38.2383 164.121 40.1753 163.937 42.0975C163.73 44.1229 162.811 46.0118 161.341 47.4341C160.582 48.1432 159.64 48.6298 158.619 48.8396C157.612 49.0345 156.571 48.9626 155.601 48.6311C153.725 47.9577 152.145 46.6577 151.132 44.955C150.206 43.3267 149.55 41.5613 149.191 39.7266C148.801 37.9503 148.481 36.2127 148.177 34.5059C147.499 31.2759 147.406 27.9522 147.904 24.6901C148.133 23.1803 148.837 21.7804 149.916 20.6896C150.437 20.1971 151.079 19.8487 151.778 19.6793C152.477 19.5099 153.209 19.5254 153.901 19.7243C154.539 19.9477 155.086 20.3705 155.461 20.929C155.807 21.4467 156.055 22.0224 156.194 22.6281C156.421 23.7194 156.583 24.8231 156.677 25.9335C156.903 27.9878 157.106 29.7949 157.27 31.2237C157.434 32.6524 157.543 33.78 157.629 34.5677C157.629 34.9384 157.691 35.2241 157.707 35.4404C157.733 35.5519 157.749 35.6657 157.753 35.7802Z" fill="#787878"/>
<path d="M104.264 29.5787L93.9549 25.3389C91.1709 27.092 86.6244 31.9188 85.3767 37.3094C84.6585 40.2626 84.3956 43.3064 84.5968 46.3374C84.7684 49.6042 84.4721 53.0641 82.6473 55.7903C81.3449 57.7287 79.2472 59.42 79.2082 61.7524C79.1692 64.4322 81.9688 66.7414 81.3995 69.3671C80.9394 71.4678 78.5765 72.5258 77.3444 74.2944C75.5507 76.8584 76.4163 80.3646 77.5861 83.2607C80.4091 90.2499 74.4044 100.305 79.6917 105.711C84.9088 101.471 100.334 93.6093 105.551 89.3695C106.778 88.514 107.794 87.3945 108.522 86.095C109.427 84.1256 108.936 81.8474 108.468 79.739C104.803 63.281 103.389 46.4098 104.264 29.5787Z" fill="#263238"/>
<path d="M165.918 150.11L160.834 145.013L106.479 160.196C106.479 160.196 103.492 183.859 103.796 185.373C104.101 186.887 103.796 191.211 103.796 191.211L178.809 185.419C178.809 185.419 179.659 165.27 165.918 150.11Z" fill="#263238"/>
<path d="M121.179 170.684C121.107 170.9 121.002 171.103 120.867 171.286C120.641 171.649 120.313 172.182 119.845 172.831C119.305 173.567 118.682 174.24 117.989 174.839C117.11 175.552 116.098 176.087 115.01 176.414C113.062 177.03 111.027 177.33 108.982 177.302C108.367 177.3 107.753 177.264 107.142 177.194C106.913 177.193 106.686 177.151 106.471 177.071C106.471 177.009 107.438 177.071 108.982 177.017C110.987 176.958 112.973 176.625 114.886 176.028C115.926 175.694 116.894 175.17 117.74 174.484C118.425 173.91 119.052 173.271 119.611 172.576C120.586 171.441 121.124 170.645 121.179 170.684Z" fill="#455A64"/>
<path d="M139.061 188.539C138.958 188.305 138.888 188.058 138.85 187.806C138.741 187.334 138.593 186.639 138.437 185.774C138.109 184.052 137.727 181.666 137.431 179.009C137.135 176.352 136.979 173.927 136.916 172.182C136.916 171.309 136.869 170.638 136.877 170.105C136.851 169.846 136.867 169.586 136.924 169.332C137.074 170.266 137.167 171.207 137.205 172.151C137.345 173.889 137.54 176.298 137.836 178.947C138.133 181.596 138.468 183.983 138.718 185.713C138.896 186.646 139.011 187.59 139.061 188.539Z" fill="#455A64"/>
<path d="M144.254 187.304C144.137 187.304 143.677 183.303 143.225 178.353C142.773 173.402 142.445 169.379 142.593 169.363C142.741 169.348 143.17 173.364 143.623 178.314C144.075 183.264 144.364 187.296 144.254 187.304Z" fill="#455A64"/>
<path d="M170.613 159.687C170.469 159.909 170.299 160.114 170.106 160.297C169.763 160.675 169.256 161.208 168.546 161.841C167.769 162.585 166.92 163.252 166.012 163.834C164.883 164.555 163.622 165.048 162.3 165.286C160.963 165.497 159.594 165.345 158.338 164.845C157.331 164.438 156.384 163.898 155.523 163.239C154.944 162.803 154.392 162.334 153.87 161.833C153.664 161.664 153.481 161.469 153.324 161.254C153.371 161.2 154.213 161.965 155.663 163.007C156.521 163.619 157.454 164.12 158.44 164.498C159.639 164.954 160.938 165.087 162.206 164.884C163.475 164.66 164.687 164.196 165.778 163.517C166.681 162.96 167.535 162.327 168.328 161.625C169.755 160.428 170.566 159.64 170.613 159.687Z" fill="#455A64"/>
<path d="M174.769 174.669C174.549 174.837 174.308 174.978 174.052 175.086L172.048 176.121C170.356 177.001 168.039 178.26 165.567 179.774C163.095 181.288 160.888 182.786 159.329 183.89L157.496 185.203C157.283 185.383 157.047 185.533 156.794 185.651C156.974 185.44 157.175 185.249 157.395 185.079C157.8 184.732 158.401 184.245 159.157 183.658C163.131 180.626 167.415 178.014 171.939 175.866C172.804 175.457 173.498 175.14 174.013 174.939C174.251 174.814 174.506 174.724 174.769 174.669Z" fill="#455A64"/>
<path d="M125.187 168.359C125.133 168.359 124.946 167.989 124.696 167.332C124.376 166.47 124.146 165.577 124.01 164.668C123.877 163.745 123.93 162.805 124.166 161.903C124.241 161.521 124.404 161.162 124.641 160.853C124.372 162.088 124.296 163.356 124.415 164.614C124.548 165.502 124.733 166.381 124.969 167.247C125.105 167.603 125.179 167.979 125.187 168.359Z" fill="#455A64"/>
<path d="M128.463 168.552C128.276 168.207 128.147 167.834 128.081 167.448C127.828 166.538 127.659 165.608 127.574 164.668C127.542 164.152 127.568 163.633 127.652 163.123C127.736 162.696 127.88 162.282 128.081 161.895C128.424 161.239 128.775 160.938 128.806 160.968C128.676 161.327 128.519 161.675 128.338 162.011C128.022 162.862 127.9 163.772 127.979 164.675C128.049 165.741 128.26 166.707 128.369 167.417C128.464 167.788 128.496 168.171 128.463 168.552Z" fill="#455A64"/>
<path d="M148.543 166.683C148.534 164.757 148.131 162.852 147.358 161.084C146.584 159.316 145.457 157.721 144.044 156.397C144.558 156.67 145.018 157.034 145.401 157.47C146.384 158.472 147.177 159.641 147.74 160.922C148.301 162.203 148.621 163.574 148.684 164.969C148.74 165.544 148.693 166.125 148.543 166.683Z" fill="#455A64"/>
<path d="M152.154 165.432C151.802 163.696 151.322 161.987 150.719 160.32C149.982 158.716 149.127 157.167 148.161 155.686C148.578 156.017 148.937 156.413 149.222 156.86C150.746 158.931 151.731 161.342 152.092 163.88C152.194 164.391 152.215 164.915 152.154 165.432Z" fill="#455A64"/>
<path d="M138.343 162.768C138.343 162.768 138.484 162.559 138.889 162.374C139.469 162.124 140.124 162.099 140.722 162.305C141.144 162.442 141.522 162.69 141.814 163.023C142.144 163.417 142.333 163.909 142.352 164.421C142.373 164.981 142.224 165.536 141.923 166.011C141.759 166.271 141.546 166.497 141.294 166.674C141.043 166.852 140.758 166.978 140.457 167.046C139.876 167.164 139.272 167.088 138.74 166.83C138.208 166.571 137.778 166.145 137.517 165.618C137.319 165.149 137.27 164.632 137.376 164.135C137.436 163.696 137.617 163.282 137.899 162.938C138.339 162.488 138.929 162.213 139.56 162.165C139.674 162.146 139.792 162.151 139.904 162.179C140.017 162.207 140.123 162.257 140.215 162.328C140.002 162.31 139.788 162.31 139.575 162.328C139.009 162.428 138.495 162.717 138.117 163.146C137.89 163.455 137.75 163.817 137.712 164.197C137.629 164.628 137.678 165.074 137.852 165.479C138.087 165.918 138.459 166.272 138.913 166.486C139.366 166.7 139.878 166.764 140.371 166.668C140.852 166.532 141.273 166.24 141.564 165.837C141.856 165.435 142.002 164.946 141.977 164.451C141.972 164.015 141.824 163.593 141.556 163.247C141.306 162.955 140.987 162.73 140.628 162.59C140.09 162.381 139.495 162.362 138.944 162.536C138.554 162.652 138.406 162.799 138.343 162.768Z" fill="#455A64"/>
<path d="M89.7593 87.7939C89.3304 88.3113 76.8218 96.2041 74.9424 101.286C73.063 106.367 76.0888 127.096 76.6112 130.679C77.1337 134.263 84.2303 147.793 84.2303 147.793C84.2303 147.793 82.7408 153.632 84.6904 157.231C85.9573 159.457 87.8551 161.266 90.1492 162.436L102.72 155.616L94.9218 120.663L89.7593 87.7939Z" fill="#008DFF"/>
<path d="M91.124 124.509C91.4827 124.007 91.9662 123.682 92.2626 123.304C92.5589 122.925 93.1984 122.756 93.5025 123.119C93.8066 123.481 93.5025 124.153 93.1048 124.555C94.3681 124.601 95.3273 122.887 96.5517 123.227C96.7388 123.31 96.9074 123.429 97.0479 123.577C97.1884 123.725 97.298 123.9 97.3704 124.09C97.4429 124.28 97.4767 124.482 97.47 124.685C97.4634 124.888 97.4163 125.088 97.3315 125.273C96.9385 126.006 96.3178 126.593 95.5613 126.949C94.8043 127.296 94.1234 127.787 93.5571 128.393C93.2919 128.733 93.1204 129.251 93.4089 129.575C93.9002 130.131 95.0388 129.474 95.4755 130.069C95.764 130.471 95.4131 131.011 95.0778 131.382C93.8456 132.7 92.6187 134.026 91.3969 135.359C91.1022 135.74 90.7125 136.038 90.2662 136.224C90.0408 136.307 89.7924 136.303 89.57 136.213C89.3476 136.123 89.1675 135.953 89.0652 135.738C89.0303 135.506 89.0704 135.269 89.1796 135.061C89.2889 134.853 89.4617 134.684 89.6735 134.579C90.1063 134.39 90.5213 134.162 90.9134 133.9C91.105 133.764 91.2358 133.56 91.278 133.331C91.3202 133.102 91.2706 132.865 91.1396 132.672C90.7263 132.255 90.0244 132.602 89.5799 132.965L85.2908 136.302C84.9967 136.576 84.6327 136.765 84.238 136.85C84.0411 136.882 83.8392 136.839 83.6739 136.728C83.5085 136.617 83.3922 136.448 83.349 136.255C83.3537 136.048 83.4187 135.847 83.5362 135.676C84.3129 134.329 85.3775 133.167 86.6555 132.27C87.1734 131.976 87.6396 131.6 88.0358 131.158C88.2285 130.933 88.3449 130.654 88.3687 130.361C88.3925 130.067 88.3224 129.773 88.1684 129.521C87.3257 130.307 86.3941 130.993 85.3922 131.567C85.0413 131.776 84.5266 131.946 84.2614 131.629C83.9963 131.313 84.2614 130.857 84.55 130.509L88.9872 125.35C89.1469 125.109 89.3531 124.902 89.5941 124.74C89.835 124.579 90.1058 124.466 90.3909 124.408L91.124 124.509Z" fill="white"/>
<path d="M97.3081 76.4876L96.2943 82.5965L87.061 89.9178C87.061 89.9178 84.8775 103.711 86.9596 117.72C86.9596 117.72 100.49 154.018 100.817 155.562C101.433 158.505 106.892 160.968 106.892 160.968C106.892 160.968 127.503 161.162 134.584 160.15C141.665 159.138 158.759 148.442 160.397 147.021C162.035 145.6 163.883 138.773 163.883 138.773L151.281 103.819L150.571 79.2293L131.738 74.4411L125.343 69.5447L97.3081 76.4876Z" fill="#008DFF"/>
<path d="M152.848 101.989C153.207 101.487 153.691 101.162 153.979 100.784C154.268 100.405 154.923 100.236 155.227 100.598C155.531 100.961 155.227 101.633 154.821 102.035C156.092 102.081 157.052 100.367 158.276 100.707C158.463 100.79 158.632 100.909 158.772 101.057C158.913 101.205 159.022 101.38 159.095 101.57C159.167 101.76 159.201 101.962 159.194 102.165C159.188 102.368 159.141 102.568 159.056 102.753C158.663 103.486 158.042 104.073 157.286 104.429C156.529 104.776 155.848 105.267 155.281 105.873C155.016 106.221 154.845 106.73 155.133 107.055C155.617 107.611 156.763 106.954 157.2 107.549C157.488 107.951 157.137 108.491 156.802 108.862C155.57 110.185 154.343 111.511 153.121 112.839C152.826 113.22 152.437 113.518 151.99 113.704C151.765 113.789 151.516 113.785 151.293 113.695C151.07 113.605 150.89 113.434 150.79 113.218C150.754 112.987 150.794 112.751 150.903 112.544C151.013 112.337 151.186 112.17 151.398 112.067C151.829 111.872 152.244 111.642 152.638 111.38C152.828 111.243 152.957 111.039 152.999 110.811C153.041 110.582 152.993 110.346 152.864 110.152C152.451 109.735 151.749 110.082 151.304 110.445L146.984 113.781C146.694 114.057 146.332 114.246 145.939 114.33C145.742 114.362 145.54 114.319 145.375 114.208C145.209 114.097 145.093 113.928 145.05 113.735C145.055 113.528 145.12 113.327 145.237 113.156C146.014 111.809 147.078 110.647 148.356 109.75C148.874 109.456 149.34 109.08 149.737 108.638C149.929 108.413 150.046 108.134 150.07 107.841C150.093 107.547 150.023 107.253 149.869 107.001C149.027 107.787 148.095 108.473 147.093 109.047C146.734 109.256 146.227 109.426 145.962 109.109C145.697 108.792 145.962 108.337 146.251 107.989C147.733 106.265 149.212 104.545 150.688 102.83C150.848 102.589 151.054 102.382 151.295 102.22C151.536 102.059 151.807 101.946 152.092 101.888L152.848 101.989Z" fill="white"/>
<path d="M150.267 79.3451C150.267 79.3451 160.693 82.9671 163.423 89.1455C166.152 95.3238 176.602 124.671 175.947 130.077C175.292 135.483 173.553 141.661 168.827 141.939C164.101 142.217 158.689 137.452 158.689 137.452L154.447 130.617L154.673 123.458L149.854 104.398L150.267 79.3451Z" fill="#008DFF"/>
<path d="M97.7058 79.4764C97.7058 79.5228 119.245 105.611 119.245 105.611L122.169 81.438L126.248 69.537L98.1737 76.4027L97.7058 79.4764Z" fill="#967262"/>
<g opacity="0.3">
<path d="M142.157 77.5997C140.885 76.9665 139.357 77.4684 138.07 78.0631C130.787 81.4689 122.871 85.6007 120.734 93.285L120.649 97.9187C121.319 100.714 124.236 102.552 127.129 102.8C130.022 103.047 132.869 101.981 135.458 100.684C137.784 99.5252 140.002 98.1659 142.086 96.6213C143.241 95.764 144.426 94.7137 144.652 93.3004C144.941 91.3697 143.303 89.6861 142.936 87.7708C142.586 85.9868 143.358 84.1951 143.716 82.4111C144.075 80.6271 143.802 78.4106 142.157 77.5997Z" fill="black"/>
</g>
<path d="M86.9363 117.759C87.0258 117.898 87.0966 118.049 87.1468 118.207L87.6771 119.52C88.1216 120.67 88.7611 122.331 89.5253 124.393C91.085 128.517 93.0268 134.27 95.2338 140.611C96.3489 143.777 97.4329 146.789 98.4311 149.515C98.9302 150.882 99.3903 152.188 99.8738 153.377C100.321 154.481 100.872 155.541 101.519 156.543C102.471 157.986 103.723 159.211 105.192 160.134C106.245 160.775 106.892 161.023 106.869 161.061C106.707 161.022 106.55 160.965 106.401 160.891C105.957 160.716 105.526 160.507 105.114 160.266C103.581 159.38 102.272 158.159 101.285 156.698C100.607 155.693 100.03 154.625 99.5619 153.508C99.055 152.303 98.5871 151.006 98.0724 149.647C97.0586 146.921 95.959 143.916 94.8516 140.742C92.6681 134.425 90.6951 128.702 89.2524 124.524C88.5349 122.478 87.9501 120.817 87.529 119.605L87.0689 118.261C87.0079 118.098 86.9635 117.93 86.9363 117.759Z" fill="#263238"/>
<path d="M119.144 106.437C119.067 106.368 118.999 106.29 118.941 106.205L118.387 105.503C117.904 104.892 117.202 103.958 116.282 102.877C113.774 99.8364 111.056 96.9721 108.148 94.3044L108.46 94.1731C108.374 97.7102 108.281 101.68 108.179 105.866C108.179 106.236 108.179 106.638 108.179 106.947V107.773L107.82 107.001C104.506 100.274 101.535 94.2271 99.367 89.8096C98.322 87.6472 97.4797 85.8864 96.8637 84.6198C96.5907 84.0329 96.3724 83.5618 96.2086 83.1988C96.1256 83.0371 96.0552 82.8692 95.998 82.6968C96.1096 82.8427 96.2038 83.0008 96.2788 83.1679C96.466 83.5155 96.7077 83.9402 97.004 84.5503L99.6243 89.6861C101.823 94.0881 104.834 100.112 108.203 106.823L107.82 106.908C107.82 106.561 107.82 106.198 107.82 105.827C107.937 101.641 108.039 97.6716 108.132 94.1345V93.7251L108.429 94.0032C111.331 96.7002 114.023 99.6096 116.484 102.707C117.381 103.842 118.044 104.769 118.512 105.402L119.019 106.136C119.074 106.23 119.116 106.332 119.144 106.437Z" fill="#263238"/>
<path d="M149.807 125.304C149.893 125.381 143.568 132.046 135.77 140.186C127.971 148.326 121.514 154.86 121.436 154.79C121.358 154.721 127.636 148.056 135.473 139.908C143.311 131.76 149.729 125.227 149.807 125.304Z" fill="#263238"/>
<path d="M138.117 158.891C137.859 158.1 137.656 157.292 137.509 156.474C137.158 154.976 136.628 152.921 135.902 150.697C135.177 148.473 134.382 146.496 133.773 145.082C133.413 144.329 133.098 143.556 132.83 142.766C133.302 143.457 133.707 144.191 134.039 144.959C134.909 146.778 135.659 148.651 136.285 150.566C136.915 152.477 137.418 154.427 137.79 156.404C137.984 157.22 138.093 158.053 138.117 158.891Z" fill="#263238"/>
<path d="M85.322 116.477C83.5069 115.501 81.7588 114.407 80.0893 113.202C78.3396 112.113 76.6645 110.911 75.075 109.603C76.8931 110.576 78.6438 111.667 80.3155 112.87C82.0627 113.962 83.7352 115.167 85.322 116.477Z" fill="#263238"/>
<path d="M168.819 141.893C168.819 141.893 168.726 141.893 168.546 141.893H167.767C167.338 141.896 166.91 141.863 166.488 141.792C165.911 141.716 165.343 141.592 164.788 141.422C163.299 140.933 161.929 140.144 160.764 139.105C159.277 137.767 158.101 136.125 157.317 134.294C156.584 131.359 155.757 128.115 154.915 124.671C153.355 118.137 151.881 112.229 150.828 107.889L149.627 102.792L149.323 101.402C149.28 101.243 149.254 101.08 149.245 100.915C149.32 101.064 149.375 101.223 149.409 101.386C149.503 101.742 149.627 102.197 149.783 102.753C150.111 104.004 150.563 105.719 151.101 107.819C152.193 112.152 153.675 118.052 155.312 124.578C156.155 128.007 156.958 131.274 157.652 134.209C158.41 135.995 159.539 137.603 160.966 138.927C162.093 139.954 163.42 140.743 164.866 141.244C166.151 141.622 167.479 141.839 168.819 141.893Z" fill="#263238"/>
<path d="M92.6525 142.372C92.1395 142.514 91.6187 142.627 91.0929 142.712C88.6361 143.316 86.4785 144.77 85.0101 146.812C84.739 147.26 84.4449 147.693 84.1289 148.11C84.2402 147.588 84.4578 147.094 84.7684 146.658C85.4558 145.559 86.37 144.617 87.451 143.893C88.5247 143.158 89.7454 142.66 91.0305 142.434C91.5602 142.297 92.1137 142.276 92.6525 142.372Z" fill="#263238"/>
<path d="M92.7929 141.491C91.6619 142.153 90.4249 142.618 89.1355 142.866C87.8739 143.249 86.5543 143.411 85.2363 143.345C85.2363 143.229 86.9442 142.99 89.0185 142.48C91.0929 141.97 92.7462 141.383 92.7929 141.491Z" fill="#263238"/>
<path d="M90.352 98.5906C90.7186 98.0886 91.202 97.7642 91.4906 97.3858C91.7791 97.0074 92.4264 96.8297 92.7383 97.2004C93.0503 97.5711 92.7383 98.2276 92.3328 98.6292C93.6039 98.6832 94.5632 96.9688 95.7875 97.3086C95.9746 97.392 96.1432 97.5112 96.2837 97.6593C96.4242 97.8074 96.5338 97.9815 96.6063 98.1716C96.6787 98.3617 96.7126 98.5641 96.7059 98.7672C96.6992 98.9703 96.6521 99.1701 96.5673 99.3551C96.1743 100.088 95.5536 100.675 94.7971 101.031C94.0437 101.38 93.3658 101.871 92.8007 102.475C92.5356 102.815 92.364 103.332 92.6525 103.657C93.136 104.213 94.2824 103.556 94.7113 104.151C95.0077 104.553 94.6567 105.093 94.3136 105.456L90.6406 109.441C90.3458 109.822 89.9561 110.12 89.5098 110.306C89.2845 110.389 89.036 110.385 88.8136 110.295C88.5913 110.204 88.4111 110.035 88.3088 109.82C88.274 109.588 88.314 109.351 88.4232 109.143C88.5325 108.935 88.7053 108.766 88.9171 108.661C89.3476 108.467 89.7622 108.24 90.1571 107.982C90.3474 107.845 90.4766 107.641 90.5173 107.411C90.5581 107.182 90.5072 106.946 90.3754 106.754C89.9699 106.329 89.2681 106.684 88.8157 107.039L84.5188 110.383C84.2285 110.659 83.8668 110.848 83.4739 110.932C83.277 110.964 83.0751 110.92 82.9097 110.81C82.7443 110.699 82.628 110.53 82.5848 110.337C82.5882 110.13 82.6533 109.928 82.772 109.758C83.5579 108.406 84.6365 107.242 85.9303 106.352C86.4441 106.055 86.9073 105.68 87.3029 105.24C87.4967 105.016 87.6146 104.738 87.6398 104.444C87.665 104.15 87.5962 103.856 87.4432 103.603C86.597 104.384 85.6659 105.071 84.667 105.649C84.3083 105.858 83.8014 106.02 83.5362 105.711C83.2711 105.402 83.5362 104.939 83.817 104.584L88.2621 99.4324C88.585 98.9446 89.0896 98.6031 89.6658 98.4824L90.352 98.5906Z" fill="white"/>
<path d="M123.121 109.078C123.48 108.576 123.963 108.252 124.259 107.873C124.556 107.495 125.195 107.317 125.499 107.688C125.803 108.059 125.499 108.715 125.094 109.117C126.365 109.171 127.324 107.456 128.548 107.796C128.736 107.88 128.904 107.999 129.045 108.147C129.185 108.295 129.295 108.469 129.367 108.659C129.44 108.849 129.474 109.052 129.467 109.255C129.46 109.458 129.413 109.658 129.328 109.843C128.934 110.572 128.313 111.157 127.558 111.511C126.802 111.863 126.122 112.356 125.554 112.963C125.289 113.303 125.117 113.82 125.406 114.144C125.897 114.693 127.036 114.044 127.472 114.639C127.761 115.04 127.41 115.581 127.075 115.944L123.394 119.929C123.101 120.315 122.711 120.619 122.263 120.809C122.037 120.891 121.788 120.886 121.565 120.795C121.342 120.703 121.163 120.532 121.062 120.315C121.028 120.084 121.068 119.849 121.177 119.642C121.287 119.435 121.459 119.268 121.67 119.164C122.1 118.969 122.515 118.741 122.91 118.485C123.269 118.184 123.464 117.589 123.136 117.257C122.809 116.925 122.021 117.187 121.577 117.543L117.288 120.887C116.99 121.156 116.628 121.345 116.235 121.435C116.038 121.467 115.836 121.424 115.671 121.313C115.505 121.202 115.389 121.033 115.346 120.84C115.349 120.633 115.414 120.432 115.533 120.261C116.305 118.911 117.371 117.748 118.652 116.855C119.168 116.558 119.634 116.183 120.033 115.743C120.225 115.518 120.342 115.239 120.366 114.946C120.389 114.652 120.319 114.358 120.165 114.106C119.321 114.889 118.389 115.576 117.389 116.152C117.038 116.353 116.523 116.523 116.258 116.214C115.993 115.905 116.258 115.442 116.547 115.087C118.028 113.372 119.508 111.653 120.984 109.928C121.311 109.446 121.815 109.108 122.388 108.986L123.121 109.078Z" fill="white"/>
<path d="M110.636 139.823C111.002 139.321 111.486 138.997 111.774 138.618C112.063 138.24 112.71 138.07 113.022 138.433C113.334 138.796 113.022 139.468 112.616 139.862C113.888 139.916 114.847 138.201 116.071 138.541C116.258 138.625 116.427 138.744 116.567 138.892C116.708 139.04 116.817 139.214 116.89 139.404C116.962 139.594 116.996 139.797 116.989 140C116.983 140.203 116.936 140.403 116.851 140.588C116.458 141.32 115.837 141.908 115.081 142.264C114.327 142.613 113.649 143.103 113.084 143.708C112.819 144.048 112.648 144.565 112.936 144.889C113.42 145.445 114.566 144.789 114.995 145.384C115.291 145.785 114.94 146.326 114.597 146.689L110.924 150.674C110.629 151.054 110.24 151.353 109.793 151.539C109.568 151.621 109.32 151.617 109.097 151.527C108.875 151.437 108.695 151.268 108.592 151.052C108.558 150.82 108.598 150.583 108.707 150.375C108.816 150.167 108.989 149.999 109.201 149.894C109.634 149.704 110.049 149.477 110.441 149.214C110.631 149.078 110.76 148.873 110.801 148.644C110.842 148.415 110.791 148.179 110.659 147.986C110.253 147.562 109.552 147.917 109.099 148.272L104.802 151.616C104.512 151.891 104.15 152.081 103.757 152.164C103.561 152.197 103.359 152.153 103.193 152.043C103.028 151.932 102.912 151.763 102.868 151.57C102.872 151.363 102.937 151.161 103.056 150.991C103.832 149.644 104.897 148.481 106.175 147.585C106.692 147.292 107.156 146.916 107.547 146.473C107.741 146.249 107.859 145.97 107.884 145.676C107.91 145.383 107.841 145.088 107.688 144.835C106.844 145.619 105.912 146.306 104.912 146.882C104.553 147.09 104.046 147.26 103.781 146.944C103.516 146.627 103.781 146.171 104.062 145.824L108.507 140.665C108.83 140.177 109.334 139.836 109.91 139.715L110.636 139.823Z" fill="white"/>
<path d="M147.889 137.12C148.247 136.618 148.739 136.294 149.027 135.915C149.316 135.537 149.963 135.359 150.275 135.73C150.587 136.101 150.236 136.757 149.869 137.159C151.14 137.213 152.1 135.498 153.324 135.838C153.511 135.922 153.68 136.041 153.82 136.189C153.961 136.337 154.07 136.511 154.143 136.701C154.215 136.891 154.249 137.094 154.242 137.297C154.236 137.5 154.189 137.7 154.104 137.885C153.709 138.614 153.089 139.199 152.334 139.553C151.581 139.908 150.904 140.4 150.337 141.005C150.072 141.345 149.901 141.862 150.189 142.186C150.673 142.735 151.819 142.086 152.248 142.681C152.544 143.082 152.185 143.623 151.85 143.986L148.169 147.971C147.876 148.353 147.486 148.651 147.039 148.836C146.812 148.916 146.564 148.91 146.342 148.818C146.12 148.727 145.94 148.557 145.838 148.342C145.803 148.11 145.844 147.873 145.954 147.666C146.065 147.459 146.24 147.292 146.454 147.191C146.882 146.996 147.294 146.769 147.686 146.511C148.044 146.21 148.239 145.615 147.912 145.283C147.584 144.951 146.805 145.214 146.352 145.569L142.063 148.913C141.768 149.186 141.404 149.375 141.01 149.461C140.813 149.494 140.612 149.45 140.446 149.339C140.281 149.229 140.165 149.06 140.121 148.867C140.124 148.658 140.192 148.456 140.316 148.287C141.1 146.933 142.179 145.77 143.475 144.882C143.987 144.583 144.45 144.208 144.847 143.77C145.041 143.546 145.159 143.267 145.184 142.973C145.209 142.68 145.141 142.385 144.988 142.132C144.141 142.914 143.21 143.6 142.211 144.179C141.853 144.387 141.338 144.55 141.073 144.241C140.808 143.932 141.073 143.468 141.361 143.113L145.806 137.962C145.965 137.72 146.171 137.511 146.412 137.348C146.653 137.185 146.924 137.071 147.21 137.012L147.889 137.12Z" fill="white"/>
<path d="M133.664 141.252C133.58 141.157 133.509 141.05 133.454 140.935L132.908 139.985C132.44 139.167 131.785 137.954 131.013 136.448C129.453 133.436 127.418 129.204 125.413 124.439C123.409 119.674 121.818 115.257 120.734 112.036C120.204 110.422 119.799 109.117 119.534 108.175C119.417 107.758 119.323 107.402 119.245 107.124C119.201 107.003 119.175 106.875 119.167 106.746C119.234 106.857 119.286 106.977 119.323 107.101C119.417 107.379 119.541 107.719 119.689 108.128C120.017 109.078 120.469 110.36 121.007 111.913C122.13 115.102 123.76 119.489 125.757 124.269C127.753 129.05 129.742 133.266 131.215 136.302C131.941 137.784 132.541 138.997 132.994 139.9L133.469 140.881C133.552 140.994 133.618 141.119 133.664 141.252Z" fill="#263238"/>
<path d="M175.978 129.413C175.978 129.992 173.28 131.204 172.703 131.143L172.024 130.934C171.588 131.374 171.057 131.621 170.714 131.954C170.371 132.286 169.7 132.355 169.451 131.954C169.201 131.552 169.646 130.942 170.075 130.602C168.827 130.363 167.61 131.907 166.456 131.374C166.111 131.149 165.87 130.797 165.787 130.396C165.703 129.995 165.784 129.577 166.012 129.235C166.515 128.572 167.221 128.088 168.024 127.853C168.823 127.623 169.569 127.242 170.223 126.733C170.535 126.432 170.784 125.961 170.55 125.582C170.161 124.964 168.928 125.435 168.593 124.81C168.367 124.37 168.796 123.891 169.194 123.582C170.605 122.454 172.547 120.887 173.966 119.759C173.966 119.72 175.924 126.771 175.978 129.413Z" fill="white"/>
<g opacity="0.3">
<path d="M121.639 154.358C132.947 148.249 143.038 138.41 148.512 126.864L121.639 154.358Z" fill="black"/>
</g>
<g opacity="0.3">
<path d="M84.1523 148.11C86.3671 143.399 90.7264 142.109 94.9609 142.163C95.003 141.919 94.9522 141.667 94.8183 141.458C94.6843 141.248 94.4768 141.095 94.2357 141.028C93.748 140.897 93.2338 140.897 92.7462 141.028C90.6885 141.322 88.7047 141.995 86.8974 143.013C86.066 143.544 85.3845 144.275 84.9166 145.138C84.4487 146.001 84.2099 146.968 84.2225 147.948" fill="black"/>
</g>
<g opacity="0.3">
<path d="M96.0838 82.8591C98.9594 93.2971 103.43 103.238 109.341 112.337C111.521 108.987 112.448 104.987 111.961 101.031C113.601 103.142 115.85 104.71 118.411 105.526C115.408 101.44 112.289 97.5558 108.39 94.3044C108.39 94.3044 108.054 107.433 108.062 107.07C103.984 98.9536 100.014 90.9604 96.0682 82.8591" fill="black"/>
</g>
<path d="M130.443 46.4069C129.281 50.1525 127.628 53.0331 123.963 54.5082C120.758 55.7979 117.132 55.5508 113.747 54.8635C102.744 52.6161 91.1941 46.8085 85.3531 37.3093L88.4725 30.5749C91.7712 25.4392 99.8347 19.3536 109.193 22.3655C111.724 21.6486 114.398 21.58 116.964 22.1663C119.53 22.7525 121.903 23.9743 123.862 25.7172C131.036 31.7643 130.443 46.4069 130.443 46.4069Z" fill="#263238"/>
<path d="M104.007 27.4936C97.5811 26.7213 89.2836 34.4442 88.7533 40.8465C88.1606 47.9515 87.7239 56.6475 88.4648 61.9686C89.9699 72.6726 98.2049 74.1862 98.2049 74.1862L97.8072 79.6309L122.419 74.9508L123.479 36.7765L123.612 33.3321L104.007 27.4936Z" fill="#967262"/>
<path d="M92.7539 48.5539C92.7432 48.9101 92.8733 49.2563 93.1166 49.5189C93.3598 49.7814 93.697 49.9395 94.0562 49.9595C94.2323 49.9775 94.4102 49.9605 94.5795 49.9093C94.7488 49.8582 94.9061 49.774 95.042 49.6617C95.1779 49.5494 95.2897 49.4113 95.3709 49.2556C95.4521 49.0998 95.5009 48.9295 95.5145 48.7547C95.5253 48.3985 95.3951 48.0523 95.1519 47.7898C94.9086 47.5272 94.5714 47.3691 94.2122 47.3491C94.0361 47.3311 93.8582 47.3481 93.6889 47.3993C93.5196 47.4504 93.3624 47.5346 93.2264 47.6469C93.0905 47.7592 92.9787 47.8973 92.8975 48.0531C92.8164 48.2089 92.7675 48.3792 92.7539 48.5539Z" fill="#263238"/>
<path d="M90.9446 45.4261C91.1084 45.6038 92.169 44.8624 93.6585 44.8932C95.1479 44.9241 96.2241 45.6655 96.3879 45.5034C96.5517 45.3412 96.3021 45.1018 95.8342 44.7311C95.1963 44.2797 94.4346 44.0319 93.6507 44.0206C92.8771 44.0053 92.1183 44.2323 91.4827 44.6693C91.0226 45.0245 90.8354 45.3412 90.9446 45.4261Z" fill="#263238"/>
<path d="M106.635 49.0868C106.626 49.4424 106.757 49.7875 107 50.0497C107.243 50.3118 107.579 50.4704 107.937 50.4923C108.113 50.5093 108.29 50.4914 108.458 50.4398C108.627 50.3881 108.783 50.3037 108.918 50.1916C109.053 50.0794 109.164 49.9416 109.245 49.7864C109.325 49.6312 109.374 49.4616 109.388 49.2875C109.399 48.9306 109.269 48.5835 109.026 48.3197C108.783 48.0559 108.445 47.8962 108.085 47.8743C107.909 47.8573 107.732 47.8754 107.563 47.9276C107.394 47.9797 107.237 48.0647 107.102 48.1777C106.967 48.2907 106.856 48.4294 106.776 48.5855C106.696 48.7416 106.648 48.912 106.635 49.0868Z" fill="#263238"/>
<path d="M105.551 45.9821C105.723 46.1598 106.783 45.4184 108.273 45.4492C109.762 45.4801 110.831 46.2215 110.994 46.0594C111.158 45.8972 110.909 45.6578 110.441 45.2871C109.806 44.8359 109.046 44.5879 108.265 44.5766C107.491 44.5597 106.732 44.7868 106.097 45.2253C105.652 45.5805 105.473 45.8972 105.551 45.9821Z" fill="#263238"/>
<path d="M99.944 56.7943C99.1625 56.5432 98.3536 56.385 97.5343 56.3232C97.16 56.2768 96.8013 56.1919 96.7545 55.937C96.7297 55.5465 96.8278 55.158 97.0352 54.8249C97.4096 53.9213 97.8151 52.9714 98.2128 51.9829C99.8505 47.9361 101.044 44.6075 100.88 44.5457C100.716 44.484 99.25 47.7044 97.6123 51.7512C97.2146 52.7475 96.8325 53.7051 96.4816 54.6164C96.2297 55.0624 96.1494 55.5836 96.2554 56.0838C96.3062 56.219 96.3884 56.3406 96.4955 56.4385C96.6025 56.5365 96.7313 56.6081 96.8715 56.6475C97.0796 56.707 97.2944 56.7407 97.5109 56.7479C98.3166 56.8663 99.1343 56.8819 99.944 56.7943Z" fill="#263238"/>
<path d="M98.2051 74.2171C103.396 74.397 108.537 73.1714 113.077 70.6722C113.077 70.6722 109.138 78.0399 98.0101 76.8506L98.2051 74.2171Z" fill="#77574A"/>
<path d="M100.505 60.3622C100.793 60.0136 101.167 59.7438 101.59 59.5789C102.013 59.4139 102.472 59.3592 102.923 59.42C103.25 59.4544 103.567 59.5542 103.854 59.7136C104.14 59.8729 104.392 60.0883 104.592 60.3468C104.786 60.5966 104.898 60.8992 104.913 61.2139C104.929 61.5286 104.846 61.8405 104.678 62.1076C104.434 62.3672 104.117 62.5486 103.768 62.6284C103.419 62.7083 103.054 62.6829 102.72 62.5555C102.021 62.2992 101.382 61.9051 100.841 61.3971C100.678 61.2759 100.538 61.1268 100.427 60.9569C100.372 60.8761 100.342 60.7805 100.342 60.6827C100.342 60.5849 100.372 60.4894 100.427 60.4086" fill="#77574A"/>
<path d="M104.296 57.8986C104.054 57.8986 104.023 59.4432 102.619 60.5862C101.215 61.7292 99.4995 61.4898 99.4995 61.7137C99.4995 61.8064 99.8738 62.0304 100.599 62.0613C101.546 62.0938 102.475 61.7928 103.219 61.2117C103.933 60.6561 104.4 59.8473 104.522 58.9566C104.584 58.2925 104.412 57.8909 104.296 57.8986Z" fill="#263238"/>
<path d="M105.286 40.2054C105.418 40.607 106.908 40.4448 108.647 40.6842C110.386 40.9237 111.766 41.4565 112.031 41.0704C112.141 40.9005 111.899 40.5221 111.337 40.1205C110.59 39.6249 109.735 39.3101 108.842 39.2014C107.952 39.0783 107.046 39.1683 106.198 39.464C105.551 39.7189 105.223 40.0123 105.286 40.2054Z" fill="#263238"/>
<path d="M91.6153 41.1708C91.8648 41.5106 92.902 41.1708 94.1263 41.1708C95.3507 41.1708 96.4035 41.4411 96.6452 41.0936C96.7544 40.9237 96.5984 40.5916 96.1461 40.2595C95.5461 39.8584 94.8344 39.6532 94.1107 39.6726C93.3881 39.6751 92.6834 39.896 92.091 40.3059C91.6153 40.6688 91.4593 41.0086 91.6153 41.1708Z" fill="#263238"/>
<path d="M122.614 32.2663C121.748 30.4669 119.619 29.7255 117.732 29.0458C115.065 28.0882 112.476 26.9066 109.754 26.1189C107.047 25.2261 104.151 25.053 101.355 25.6169C98.5091 26.2965 96.0448 28.0496 93.869 29.988C90.9992 32.5443 88.4102 35.6798 87.6771 39.4331V40.7229C93.8612 38.9852 100.014 32.5829 104.49 28.0187C108.351 33.3475 114.776 42.8081 120.469 45.1249C120.851 42.3987 122.809 38.4446 123.027 35.703C123.182 34.5412 123.039 33.3597 122.614 32.2663Z" fill="#263238"/>
<path d="M143.412 75.3601C142.991 73.2286 140.862 71.9389 138.998 70.7959C137.134 69.6529 135.138 68.0156 135.247 65.8455C135.356 63.6754 137.797 61.8064 137.587 59.5436C137.376 57.2808 134.545 56.076 133.04 54.2148C130.857 51.5272 130.436 49.8514 130.436 46.4069C130.436 39.6649 127.714 30.8607 121.717 27.648L113.887 34.1584C116.165 40.4526 118.473 47.0325 117.677 53.6819C117.202 57.6206 115.642 61.4512 115.868 65.413C116.11 69.6683 118.379 73.5452 119.151 77.731C119.884 81.7006 119.253 85.786 119.455 89.8174C119.658 93.8487 121.015 98.2045 124.462 100.344L137.478 94.1654C138.889 93.4935 140.48 92.6208 140.683 91.0762C140.885 89.5316 139.505 88.1724 139.123 86.6278C138.187 82.5888 144.208 79.4224 143.412 75.3601Z" fill="#263238"/>
<path d="M130.225 42.4142C129.607 42.6917 128.962 42.9039 128.299 43.0475C126.714 43.4892 125.089 43.7763 123.448 43.9048C121.798 44.0051 120.142 43.8275 118.551 43.3796C117.884 43.2282 117.243 42.981 116.648 42.6459C116.687 42.4838 119.619 43.758 123.425 43.5032C125.043 43.3615 126.648 43.1034 128.229 42.7309C128.883 42.564 129.551 42.458 130.225 42.4142Z" fill="#455A64"/>
<path d="M130.475 44.8932C129.941 45.2955 129.35 45.6158 128.72 45.8432C127.224 46.4669 125.624 46.8074 124.002 46.8471C122.383 46.8608 120.77 46.6423 119.214 46.1984C118.564 46.0527 117.935 45.827 117.342 45.5265C117.998 45.6103 118.647 45.7419 119.284 45.9204C120.818 46.2756 122.388 46.4518 123.963 46.4456C125.541 46.4008 127.102 46.1089 128.587 45.5806C129.204 45.3183 129.834 45.0889 130.475 44.8932Z" fill="#455A64"/>
<path d="M84.7527 40.9005C85.4376 40.8038 86.1276 40.747 86.8193 40.7305C87.4985 40.5827 88.186 40.4744 88.878 40.4062C88.2753 40.7977 87.5894 41.046 86.8738 41.1317C86.1582 41.2175 85.4323 41.1383 84.7527 40.9005Z" fill="#455A64"/>
<path d="M84.3629 42.1207C84.4331 42.028 85.2597 42.5918 86.4061 42.978C87.5525 43.3641 88.5507 43.4336 88.5507 43.5572C87.7901 43.7415 86.9893 43.6708 86.2735 43.3564C85.5144 43.169 84.8413 42.7337 84.3629 42.1207Z" fill="#455A64"/>
<path d="M120.82 95.1616C120.626 95.134 120.437 95.0794 120.259 94.9994C119.728 94.7783 119.252 94.4463 118.863 94.0263C118.241 93.3581 117.834 92.5221 117.693 91.6245C117.608 91.0585 117.65 90.4808 117.818 89.9332C118.014 89.3333 118.289 88.762 118.637 88.2341C119.012 87.6731 119.348 87.0874 119.643 86.481C119.927 85.8215 120.078 85.113 120.087 84.3958C120.031 82.7922 119.549 81.2315 118.691 79.8702C117.712 78.3644 116.65 76.9128 115.51 75.5222C114.256 73.9945 113.392 72.1907 112.991 70.2629C112.694 68.3194 112.811 66.336 113.334 64.4398C113.811 62.694 114.424 60.9873 115.166 59.335C115.837 57.7518 116.492 56.2458 116.983 54.8171C117.458 53.4882 117.79 52.1138 117.974 50.7162C118.294 48.698 118.169 46.635 117.607 44.6692C117.376 43.9568 117.054 43.2768 116.648 42.6458C116.788 42.7832 116.911 42.9361 117.015 43.1015C117.338 43.5822 117.6 44.1011 117.794 44.646C118.421 46.6275 118.592 48.7228 118.294 50.778C118.124 52.1979 117.803 53.5959 117.334 54.9484C116.851 56.408 116.204 57.914 115.541 59.5049C114.814 61.1426 114.217 62.8339 113.755 64.5634C113.248 66.4043 113.134 68.3296 113.42 70.2166C113.811 72.0842 114.648 73.832 115.86 75.3137C117.006 76.7185 118.07 78.1855 119.05 79.708C119.93 81.131 120.414 82.7588 120.454 84.4267C120.438 85.1853 120.271 85.9332 119.962 86.6278C119.65 87.2317 119.299 87.8148 118.91 88.3731C118.571 88.8784 118.296 89.4231 118.091 89.9949C117.936 90.4945 117.888 91.0206 117.95 91.5395C118.068 92.3978 118.437 93.2033 119.011 93.8564C119.499 94.43 120.119 94.8779 120.82 95.1616Z" fill="#263238"/>
<path d="M109.606 22.2497C108.448 22.7669 107.392 23.4834 106.487 24.3658C105.678 25.3312 105.044 26.4288 104.615 27.6094C104.57 27.2258 104.627 26.8372 104.779 26.4818C105.068 25.5937 105.549 24.7783 106.187 24.0917C106.825 23.405 107.606 22.8636 108.476 22.5045C108.824 22.3247 109.214 22.2369 109.606 22.2497Z" fill="#455A64"/>
<path d="M150.93 94.845L145.619 86.5583L145.253 78.4106L147.335 72.8347C147.335 72.8347 148.996 72.4408 149.269 74.3793C149.368 75.8526 149.158 77.3303 148.653 78.7195L149.791 82.6737C149.791 82.6737 150.166 83.0984 150.516 81.4534C150.867 79.8085 150.259 67.614 150.251 66.7799C150.244 65.9458 150.314 63.9456 151.569 64.131C152.825 64.3163 153.223 65.9767 153.223 66.8185C153.223 67.6603 154.143 75.8466 154.143 75.8466C154.143 75.8466 154.439 76.5803 154.735 76.4722C155.032 76.364 154.47 67.6912 154.416 66.3243C154.361 64.9573 154.049 61.9145 155.671 61.9145C157.293 61.9145 157.293 63.4591 157.387 65.1118C157.48 66.7645 158.533 76.1787 158.533 76.1787C158.533 76.1787 158.783 76.7656 159.017 75.9779C159.251 75.1902 159.539 64.9805 159.719 64.5017C159.898 64.0228 160.849 63.3896 161.582 64.548C162.315 65.7064 162.144 68.4095 162.042 73.159C161.949 77.4453 161.816 79.2215 162.308 79.5613C162.799 79.9011 164.647 77.2445 164.647 77.2445C164.647 77.2445 166.862 71.5913 168.741 71.7921C170.621 71.9929 169.357 73.4371 169.038 74.75C168.765 75.8621 165.482 82.4729 165.411 82.5578C165.341 82.6428 162.113 94.4202 162.113 94.4202L169.24 107.912C170.502 110.259 170.985 112.939 170.621 115.573C170.192 118.454 168.702 121.667 164.437 122.979C161.317 123.953 158.978 122.562 157.418 120.925C156.097 119.473 155.224 117.678 154.899 115.751C153.987 110.546 150.914 94.8295 150.914 94.8295L150.93 94.845Z" fill="#967262"/>
<path d="M156.233 88.8983C156.163 88.8983 156.233 88.265 156.061 87.3074C155.83 86.057 155.227 84.9034 154.33 83.9942C153.621 83.2537 152.677 82.7766 151.655 82.6427C151.018 82.5679 150.373 82.7124 149.83 83.052L149.752 83.0984V83.0289C149.651 82.8126 149.604 82.6891 149.628 82.6814C149.651 82.6736 149.729 82.7586 149.877 82.9594H149.768C150.034 82.7331 150.342 82.5618 150.676 82.4557C151.009 82.3496 151.361 82.3107 151.71 82.3415C152.83 82.4279 153.878 82.9233 154.65 83.7317C155.608 84.6933 156.217 85.9428 156.381 87.2842C156.469 87.826 156.418 88.3811 156.233 88.8983Z" fill="#77574A"/>
<path d="M160.717 82.6351C160.787 82.7355 160.07 83.3456 159.368 84.2492C158.989 84.8389 158.572 85.4038 158.12 85.9405C158.283 85.235 158.599 84.5735 159.048 84.0024C159.497 83.4313 160.066 82.9646 160.717 82.6351Z" fill="#77574A"/>
<path d="M88.6598 156.412C88.7591 159.854 90.1105 163.146 92.4654 165.68C94.2115 167.554 96.0544 169.338 97.9867 171.024L111.415 176.986C111.415 176.986 114.917 177.511 118.434 174.121C119.56 173.146 120.486 171.966 121.163 170.645C121.163 170.645 125.187 172.429 126.763 172.36C129.414 172.244 128.993 170.391 128.993 170.391C128.993 170.391 120.126 165.556 118.021 163.687C115.915 161.818 109.848 160.598 105.543 161.146L103.048 160.66L102.143 157.339C102.143 157.339 97.277 150.164 92.7851 152.705C88.2933 155.246 88.6598 156.412 88.6598 156.412Z" fill="#967262"/>
</svg>
