<svg width="253" height="236" viewBox="0 0 253 236" fill="none" xmlns="http://www.w3.org/2000/svg">
<path d="M227.657 0H97.5673V40.5498H113.828V16.2199H227.657C232.535 16.2199 235.788 19.4639 235.788 24.3299V113.54C235.788 118.406 232.535 121.649 227.657 121.649H121.959V178.419H78.8669L48.7836 201.938V178.419H24.3918C19.5135 178.419 16.2612 175.175 16.2612 170.309V81.0997C16.2612 76.2337 19.5135 72.9897 24.3918 72.9897H130.09V56.7698H24.3918C10.5698 56.7698 0 67.3127 0 81.0997V170.309C0 184.096 10.5698 194.639 24.3918 194.639H32.5224V236L83.7452 194.639H138.22V137.869H227.657C241.479 137.869 252.049 127.326 252.049 113.54V24.3299C252.049 10.543 241.479 0 227.657 0Z" fill="#008DFF"/>
<path d="M33.7563 161.316H53.3426L58.2391 148.427H83.538L88.4345 161.316H108.021L80.2736 89.6202H60.6874L33.7563 161.316ZM70.4805 109.76L78.6414 134.732H62.3196L70.4805 109.76Z" fill="white"/>
<path d="M146.278 113.519C155.149 113.519 167.245 111.095 178.534 105.44C189.824 111.095 202.727 113.519 210.791 113.519V97.3602C210.791 97.3602 202.727 97.3602 193.856 94.1284C203.533 84.4331 210.791 69.8902 210.791 48.8838V40.8044H186.598V24.6456H170.47V40.8044H146.278V56.9632H193.856C192.243 71.5061 185.792 80.3934 178.534 86.049C173.696 82.0093 168.858 76.3537 165.632 69.0823H148.697C151.923 79.5855 156.761 87.6649 163.213 94.1284C155.149 97.3602 147.891 97.3602 146.278 97.3602V113.519Z" fill="white"/>
</svg>
