<svg width="342" height="379" viewBox="0 0 342 379" fill="none" xmlns="http://www.w3.org/2000/svg">
<path opacity="0.2" d="M67.9712 323.159C55.9919 314.229 45.5477 301.974 42.3843 287.004C38.4183 267.867 48.0832 250.124 61.8303 237.436C66.9613 232.832 72.4618 228.662 78.2758 224.971C61.0162 234.17 44.1754 248.988 39.4767 268.979C33.8708 291.908 47.618 313.456 65.3078 326.729C117.342 365.787 209.002 366.524 263.734 332.722C208.467 361.901 119.133 360.625 67.9712 323.159ZM302.836 270.208C298.73 246.8 278.994 230.132 259.001 219.879C214.712 197.29 157.13 195.487 110.411 211.288C158.095 199.678 212.549 201.925 256.954 223.953C280.552 235.575 305.046 258.246 300.254 287.156C298.44 298.182 292.578 308.224 285.134 316.417C297.707 304.889 306.023 287.507 302.836 270.208Z" fill="#008DFF"/>
<path opacity="0.5" d="M272.574 213.395C211.212 181.337 122.135 182.343 62.5755 218.147C47.3047 227.733 33.1272 240.69 26.1141 257.673C33.7902 241.1 48.0142 228.681 63.4594 219.61C122.775 185.667 210.514 185.246 271.097 216.228C294.009 228.377 317.247 248.438 319.154 276.131C320.317 293.102 312.036 309.395 300.487 321.333C293.368 328.619 285.347 334.952 276.622 340.177C285.617 335.293 293.908 329.197 301.267 322.059C311.897 311.689 319.945 298.018 321.283 282.966C323.969 251.481 298.243 226.82 272.574 213.395ZM85.8596 348.289C67.2509 340.716 49.0726 330.217 35.9767 314.568C29.2923 306.804 24.6214 297.495 22.3807 287.472C23.0955 292.6 24.549 297.596 26.6956 302.302C42.5363 336.924 86.4295 355.475 121.612 362.439C159.341 369.895 199.105 368.291 235.904 356.997C186.474 368.42 133.335 366.77 85.8596 348.289Z" fill="white"/>
<path opacity="0.5" d="M238.985 235.165C198.104 213.805 138.743 214.472 99.0597 238.337C88.8831 244.716 79.4392 253.354 74.7638 264.672C79.8812 253.623 89.3483 245.348 99.6413 239.309C139.185 216.672 197.628 216.403 238.043 237.05C253.314 245.149 268.794 258.516 270.073 276.962C270.876 288.28 265.328 299.2 257.641 307.089C252.894 311.945 247.547 316.165 241.73 319.648C247.713 316.391 253.227 312.327 258.117 307.569C265.212 300.663 270.562 291.557 271.457 281.527C273.237 260.54 256.094 244.107 238.985 235.165ZM114.54 325.055C102.119 319.999 90.0229 313.011 81.3001 302.583C76.8428 297.409 73.7299 291.204 72.24 284.523C72.7189 287.942 73.6864 291.273 75.1127 294.413C85.708 317.482 114.947 329.901 138.44 334.477C163.738 339.555 189.888 338.309 214.596 330.849C181.612 338.468 146.209 337.368 114.575 325.055H114.54Z" fill="white"/>
<path opacity="0.3" d="M291.09 209.053C327.074 230.6 354.673 268.687 330.412 309.933C303.185 354.503 235.101 373.008 186.021 375.606C151.443 377.631 116.378 373.909 83.2891 363.329C150.024 387.533 236.741 384.397 297.894 346.427C360.454 306.27 354.918 244.014 291.09 209.053ZM55.7715 208.421C84.2195 193.006 116.552 185.328 148.629 182.519C185.009 179.534 222.075 182.846 257.036 193.72C191.01 170.159 103.549 173.565 43.4665 211.686C-18.6399 252.02 -12.4526 313.913 50.9216 348.628C18.7868 329.351 -9.12625 295.291 7.28428 256.257C16.5421 234.756 35.616 219.189 55.7715 208.421Z" fill="#008DFF"/>
<path opacity="0.3" d="M255.361 229.816C280.634 244.95 300.022 271.706 282.983 300.687C263.851 331.984 216.027 344.988 181.555 346.814C157.197 348.379 132.76 345.456 109.446 338.188C156.317 355.194 217.237 352.994 260.199 326.319C304.081 298.1 300.196 254.372 255.361 229.816ZM90.0464 229.372C110.039 218.545 132.753 213.149 155.281 211.183C180.948 208.899 206.812 211.568 231.484 219.048C185.102 202.486 123.682 204.886 81.4515 231.63C37.8258 259.967 42.1755 303.437 86.6968 327.829C64.1221 314.287 44.5133 290.375 56.039 262.94C62.4939 247.865 75.8921 236.933 90.0464 229.372Z" fill="#008DFF"/>
<g opacity="0.3">
<path d="M141.464 245.266C164.597 237.436 193.103 238.326 215.027 249.515C224.924 254.606 234.705 262.893 236.729 274.457C238.311 283.036 234.194 291.639 227.971 297.316C231.778 293.293 234.367 288.263 235.438 282.814C237.811 268.511 225.668 257.333 214.038 251.481C192.068 240.596 165.097 239.461 141.499 245.219L141.464 245.266Z" fill="#008DFF"/>
</g>
<path opacity="0.5" d="M223.889 244.95C192.208 228.388 146.21 228.915 115.447 247.408C107.562 252.359 100.246 259.042 96.6293 267.821C100.584 259.253 107.934 252.839 115.913 248.157C146.535 230.6 191.848 230.413 223.133 246.413C234.973 252.652 246.964 263.045 247.953 277.348C248.569 286.103 244.266 294.53 238.311 300.687C234.631 304.445 230.488 307.714 225.983 310.413C230.62 307.889 234.893 304.738 238.683 301.049C244.173 295.689 248.337 288.643 249.023 280.859C250.43 264.614 237.148 251.879 223.889 244.95ZM127.473 314.603C117.843 310.694 108.481 305.24 101.712 297.199C98.2663 293.17 95.8685 288.344 94.7335 283.153C95.0967 285.805 95.8452 288.388 96.9549 290.82C105.096 308.692 127.799 318.267 145.977 321.872C165.581 325.801 185.843 324.837 204.99 319.062C179.426 324.997 151.99 324.154 127.473 314.603Z" fill="white"/>
<path opacity="0.5" d="M197.349 262.132C181.81 254.01 159.259 254.267 144.174 263.303C140.313 265.726 136.719 269.003 134.951 273.31C137.058 269.204 140.356 265.841 144.407 263.666C159.422 255.075 181.624 254.969 196.976 262.811C202.792 265.89 208.607 271.004 209.142 278.027C209.444 282.323 207.339 286.454 204.42 289.474C202.613 291.317 200.581 292.922 198.372 294.249C200.647 293.012 202.744 291.468 204.606 289.661C207.407 287.07 209.2 283.56 209.665 279.759C210.363 271.777 203.85 265.527 197.349 262.132ZM150.071 296.286C145.237 294.517 140.903 291.593 137.44 287.765C135.734 285.798 134.535 283.439 133.951 280.895C134.133 282.193 134.502 283.459 135.044 284.652C139.057 293.418 150.164 298.123 159.085 299.867C168.697 301.796 178.633 301.322 188.021 298.486C175.434 301.553 162.225 300.787 150.071 296.286Z" fill="white"/>
<path opacity="0.3" d="M208.63 257.135C219.76 263.806 228.309 275.593 220.795 288.362C212.375 302.162 191.301 307.885 176.111 308.693C165.37 309.383 154.594 308.094 144.314 304.889C164.969 312.38 191.801 311.408 210.735 299.657C230.088 287.227 228.378 267.961 208.63 257.135ZM135.8 256.947C144.605 252.172 154.607 249.796 164.539 248.93C175.844 247.948 187.231 249.139 198.093 252.441C177.658 245.149 150.594 246.203 131.986 257.989C112.76 270.466 114.679 289.591 134.312 300.371C124.356 294.402 115.703 283.868 120.797 271.789C123.658 265.094 129.555 260.271 135.8 256.947Z" fill="#008DFF"/>
<path d="M83.1489 232.754C85.161 229.395 87.615 226.247 89.3945 222.747C90.9646 219.669 93.0929 217.855 92.6393 214.554C92.2206 211.441 89.0106 210.504 86.0449 209.462C84.547 208.927 83.1794 208.077 82.0324 206.969C81.1634 206.24 80.5886 205.216 80.4158 204.09C80.3941 203.514 80.4973 202.941 80.7183 202.409C80.9392 201.877 81.2726 201.401 81.6951 201.012C82.5181 200.244 83.5162 199.692 84.6013 199.404C85.6865 199.116 86.8253 199.102 87.9174 199.362C90.1074 199.907 92.0475 201.187 93.4186 202.99C94.5816 204.43 95.3841 206.08 96.4425 207.578C97.4248 209.143 98.9047 210.327 100.641 210.937C102.002 211.344 103.45 211.346 104.812 210.943C106.174 210.54 107.391 209.75 108.317 208.667C109.861 206.441 110.57 203.737 110.318 201.035C110.209 197.58 109.368 194.188 107.852 191.087C106.259 187.809 103.932 184.895 102.7 181.454C101.636 178.228 101.341 174.796 101.839 171.435C102.236 167.219 103.931 163.233 106.689 160.035C108.087 158.467 109.867 157.291 111.853 156.624C113.839 155.957 115.963 155.822 118.017 156.231C121.064 157.003 123.774 159.567 124.041 162.703C124.39 166.695 121.052 169.902 119.389 173.565C116.389 180.389 119.575 188.242 122.983 194.867C128.682 205.904 141.255 214.027 150.698 201.48C154.56 196.342 154.188 188.184 158.84 184.111C163.492 180.038 171.017 182.004 175.215 186.019C179.414 190.033 182.194 195.92 186.683 199.923C189.954 202.911 194.064 204.806 198.449 205.347C202.834 205.888 207.277 205.048 211.169 202.944C215.06 200.84 218.208 197.574 220.179 193.596C222.151 189.617 222.85 185.122 222.179 180.728C221.144 173.506 216.969 164.81 222.365 159.929C225.854 156.804 231.669 157.846 234.938 161.17C238.206 164.494 239.357 169.363 239.532 174.045C239.766 180.433 238.482 186.785 235.787 192.573C233.763 196.904 230.925 200.965 229.971 205.659C229.018 210.352 230.855 216.192 235.391 217.609C242.509 219.95 248.638 210.399 256.117 210.727C257.192 210.726 258.226 211.145 259.001 211.897C260.548 213.618 259.396 216.298 258.361 218.37C255.14 224.901 252.046 236.219 257.198 242.469C258.71 244.266 260.683 245.611 262.902 246.358C265.12 247.105 267.5 247.225 269.782 246.706C266.293 247.549 265.886 255.695 264.991 258.305C263.381 262.957 261.13 267.358 258.303 271.379C249.555 257.075 236.818 245.678 221.679 238.606C207.641 232.087 192.126 229.571 176.739 228.072C170.725 227.421 164.679 227.109 158.63 227.136C141.351 227.399 124.403 231.955 109.294 240.397C100.978 245.079 92.9534 251.306 89.3712 260.178C88.4291 262.519 87.6848 265.187 85.6029 266.615C80.3111 270.243 79.4039 261.734 79.5202 258.258C79.7412 251.797 78.3572 244.821 80.4274 238.489C81.1134 236.479 82.0266 234.555 83.1489 232.754Z" fill="#008DFF"/>
<path opacity="0.2" d="M83.1489 232.754C85.161 229.395 87.615 226.247 89.3945 222.747C90.9646 219.669 93.0929 217.855 92.6393 214.554C92.2206 211.441 89.0106 210.504 86.0449 209.462C84.547 208.927 83.1794 208.077 82.0324 206.969C81.1634 206.24 80.5886 205.216 80.4158 204.09C80.3941 203.514 80.4973 202.941 80.7183 202.409C80.9392 201.877 81.2726 201.401 81.6951 201.012C82.5181 200.244 83.5162 199.692 84.6013 199.404C85.6865 199.116 86.8253 199.102 87.9174 199.362C90.1074 199.907 92.0475 201.187 93.4186 202.99C94.5816 204.43 95.3841 206.08 96.4425 207.578C97.4248 209.143 98.9047 210.327 100.641 210.937C102.002 211.344 103.45 211.346 104.812 210.943C106.174 210.54 107.391 209.75 108.317 208.667C109.861 206.441 110.57 203.737 110.318 201.035C110.209 197.58 109.368 194.188 107.852 191.087C106.259 187.809 103.932 184.895 102.7 181.454C101.636 178.228 101.341 174.796 101.839 171.435C102.236 167.219 103.931 163.233 106.689 160.035C108.087 158.467 109.867 157.291 111.853 156.624C113.839 155.957 115.963 155.822 118.017 156.231C121.064 157.003 123.774 159.567 124.041 162.703C124.39 166.695 121.052 169.902 119.389 173.565C116.389 180.389 119.575 188.242 122.983 194.867C128.682 205.904 141.255 214.027 150.698 201.48C154.56 196.342 154.188 188.184 158.84 184.111C163.492 180.038 171.017 182.004 175.215 186.019C179.414 190.033 182.194 195.92 186.683 199.923C189.954 202.911 194.064 204.806 198.449 205.347C202.834 205.888 207.277 205.048 211.169 202.944C215.06 200.84 218.208 197.574 220.179 193.596C222.151 189.617 222.85 185.122 222.179 180.728C221.144 173.506 216.969 164.81 222.365 159.929C225.854 156.804 231.669 157.846 234.938 161.17C238.206 164.494 239.357 169.363 239.532 174.045C239.766 180.433 238.482 186.785 235.787 192.573C233.763 196.904 230.925 200.965 229.971 205.659C229.018 210.352 230.855 216.192 235.391 217.609C242.509 219.95 248.638 210.399 256.117 210.727C257.192 210.726 258.226 211.145 259.001 211.897C260.548 213.618 259.396 216.298 258.361 218.37C255.14 224.901 252.046 236.219 257.198 242.469C258.71 244.266 260.683 245.611 262.902 246.358C265.12 247.105 267.5 247.225 269.782 246.706C266.293 247.549 265.886 255.695 264.991 258.305C263.381 262.957 261.13 267.358 258.303 271.379C249.555 257.075 236.818 245.678 221.679 238.606C207.641 232.087 192.126 229.571 176.739 228.072C170.725 227.421 164.679 227.109 158.63 227.136C141.351 227.399 124.403 231.955 109.294 240.397C100.978 245.079 92.9534 251.306 89.3712 260.178C88.4291 262.519 87.6848 265.187 85.6029 266.615C80.3111 270.243 79.4039 261.734 79.5202 258.258C79.7412 251.797 78.3572 244.821 80.4274 238.489C81.1134 236.479 82.0266 234.555 83.1489 232.754Z" fill="white"/>
<path d="M108.132 208.807C108.754 208.595 109.336 208.278 109.853 207.87C112.237 205.974 112.656 202.51 112.446 199.455C112.239 196.487 111.617 193.563 110.597 190.77C109.748 188.429 108.597 186.089 108.713 183.584C108.87 181.504 109.766 179.551 111.237 178.083C112.284 177.006 113.691 175.812 113.354 174.337C112.923 172.394 110.225 172.441 108.376 171.727C105.294 170.557 104.259 166.39 105.363 163.265C106.105 161.357 107.257 159.639 108.736 158.232C107.995 158.743 107.308 159.332 106.689 159.988C103.932 163.186 102.236 167.172 101.839 171.388C101.336 174.749 101.631 178.182 102.7 181.407C103.933 184.848 106.259 187.762 107.852 191.04C109.368 194.141 110.209 197.533 110.318 200.988C110.57 203.69 109.861 206.394 108.318 208.62L108.132 208.807Z" fill="#008DFF"/>
<path d="M264.282 246.8C262.654 249.225 260.235 251.002 257.443 251.821C251.29 253.319 245.638 248.45 240.683 244.494C227.809 234.194 212.119 228.178 196.058 225.193C180.729 222.337 164.551 221.541 149.129 224.023C132.16 226.75 116.005 233.164 100.665 240.784C97.6409 242.293 94.1285 243.874 91.0348 242.516C87.6852 241.053 86.5222 236.664 87.3363 233.152C88.1504 229.641 90.4184 226.551 92.3374 223.426C94.2564 220.301 95.9079 216.708 95.2683 213.103C95.0204 211.746 94.4627 210.465 93.6393 209.363C92.8158 208.26 91.749 207.364 90.523 206.747C88.5575 205.787 86.2198 205.577 84.545 204.149C83.9574 203.619 83.5502 202.917 83.3811 202.142C83.212 201.367 83.2896 200.558 83.603 199.83C82.8923 200.124 82.2447 200.553 81.6956 201.094C81.273 201.483 80.9397 201.959 80.7187 202.491C80.4978 203.023 80.3946 203.596 80.4162 204.172C80.5891 205.298 81.1638 206.322 82.0328 207.051C83.1821 208.162 84.5542 209.012 86.057 209.544C89.0111 210.586 92.2211 211.522 92.6398 214.636C93.0934 217.948 90.965 219.762 89.3949 222.829C87.6154 226.34 85.1614 229.477 83.1494 232.836C82.027 234.637 81.1139 236.561 80.4278 238.571C78.3809 244.903 79.7416 251.879 79.5207 258.34C79.4044 261.851 80.3115 270.325 85.6034 266.697C87.6852 265.269 88.4296 262.612 89.3716 260.26C92.9538 251.388 101.002 245.138 109.295 240.479C124.404 232.037 141.351 227.481 158.631 227.218C164.68 227.191 170.725 227.503 176.739 228.154C192.126 229.653 207.641 232.169 221.679 238.688C236.818 245.76 249.555 257.157 258.303 271.461C261.11 267.452 263.346 263.067 264.944 258.434C265.84 255.824 266.294 247.677 269.736 246.835C267.938 247.233 266.074 247.221 264.282 246.8Z" fill="#008DFF"/>
<path d="M169.994 183.186C170.381 183.152 170.77 183.152 171.157 183.186C167.191 181.302 162.411 181.056 158.922 184.087C154.269 188.16 154.595 196.318 150.78 201.457C146.047 207.742 140.534 208.842 135.486 206.981C135.661 207.127 135.844 207.264 136.033 207.391C137.813 208.35 139.87 208.652 141.848 208.245C148.431 207.25 153.862 202.299 157.328 196.541C158.822 193.692 160.46 190.922 162.236 188.242C164.086 185.691 166.807 183.49 169.994 183.186Z" fill="#008DFF"/>
<path d="M230.879 181.407C231.237 180.763 231.407 180.03 231.37 179.293C231.333 178.556 231.09 177.844 230.669 177.24C229.681 176.07 227.983 175.929 226.541 175.414C225.326 174.934 224.231 174.191 223.333 173.239C222.435 172.286 221.755 171.147 221.342 169.901C220.525 167.4 220.436 164.715 221.086 162.165C221.194 161.708 221.33 161.258 221.493 160.819C217.411 165.816 221.179 173.928 222.144 180.716C222.69 185.075 221.933 189.499 219.969 193.422C218.005 197.346 214.924 200.591 211.119 202.744C210.816 202.908 210.491 203.048 210.177 203.2C210.57 203.132 210.958 203.038 211.34 202.919C215.352 201.749 218.469 198.554 220.946 195.159C223.424 191.765 225.412 188.02 228.192 184.871C229.247 183.851 230.152 182.685 230.879 181.407Z" fill="#008DFF"/>
<path d="M257.152 242.469C252.046 236.219 255.14 224.912 258.315 218.369C259.35 216.298 260.502 213.617 258.955 211.897C258.177 211.143 257.138 210.724 256.059 210.726C255.76 210.709 255.461 210.709 255.163 210.726C256.989 212.751 255.896 216.017 254.686 218.498C252.873 221.814 251.5 225.356 250.604 229.032C249.895 232.742 250.29 236.839 252.558 239.847C253.859 241.539 255.713 242.713 257.792 243.159C257.606 242.96 257.361 242.726 257.152 242.469Z" fill="#008DFF"/>
<path opacity="0.2" d="M111.469 159.906C111.176 160.132 110.946 160.431 110.803 160.774C110.661 161.117 110.609 161.492 110.655 161.861C110.992 163.207 112.981 163.242 113.912 164.201C114.842 165.161 114.737 167.128 115.924 167.912C116.477 168.164 117.096 168.23 117.689 168.099C118.282 167.968 118.818 167.648 119.215 167.186C120.033 166.437 120.631 165.478 120.945 164.411C121.259 163.344 121.276 162.211 120.994 161.135C119.645 156.769 114.272 157.366 111.469 159.906Z" fill="white"/>
<path opacity="0.2" d="M125.717 207.25C131.113 212.365 138.126 215.326 145.326 212.272C145.942 212.002 146.651 211.312 146.233 210.785C146.233 210.785 141.79 211.335 141.278 211.3C131.195 210.61 122.797 200.942 119.529 191.894C119.006 190.443 118.576 187.575 117.378 186.534C115.935 185.269 116.296 187.365 116.447 188.348C116.71 190.58 117.197 192.78 117.901 194.914C119.508 199.574 122.177 203.791 125.693 207.227L125.717 207.25Z" fill="white"/>
<path opacity="0.2" d="M165.864 187.716C165.437 188.233 165.167 188.862 165.085 189.53C165.089 190.088 165.225 190.637 165.482 191.132C165.739 191.626 166.109 192.052 166.562 192.374C167.476 193.001 168.47 193.501 169.516 193.86C173.337 195.456 176.843 197.727 179.867 200.567C180.122 200.872 180.477 201.075 180.868 201.141C181.122 201.117 181.36 201.005 181.541 200.823C181.721 200.641 181.833 200.402 181.856 200.146C181.883 199.629 181.779 199.113 181.554 198.647C179.931 194.602 177.603 190.88 174.68 187.657C172.168 184.953 168.295 184.52 165.864 187.716Z" fill="white"/>
<path opacity="0.2" d="M224.424 161.474C224.054 161.83 223.789 162.282 223.657 162.779C223.526 163.277 223.534 163.801 223.68 164.295C224.028 165.313 224.662 166.208 225.506 166.87C227.16 168.234 228.977 169.386 230.914 170.299C232.753 171.587 234.047 173.52 234.542 175.719C234.647 176.175 234.81 176.737 235.263 176.784C235.429 176.784 235.591 176.735 235.729 176.643C236.032 176.379 236.276 176.055 236.447 175.69C236.617 175.325 236.709 174.928 236.717 174.525C237.264 170.475 236.822 166.332 233.926 163.288C233.142 162.378 232.184 161.636 231.109 161.108C230.034 160.579 228.864 160.273 227.669 160.21C226.469 160.211 225.312 160.662 224.424 161.474Z" fill="white"/>
<path opacity="0.2" d="M246.045 216.473C244.789 217.239 243.479 217.912 242.126 218.486C238.688 219.847 234.879 219.922 231.391 218.697C233.648 221.04 236.721 222.409 239.962 222.513C243.183 222.604 246.385 221.993 249.348 220.722C251.593 219.832 255.268 217.679 254.245 214.671C253 211.031 247.836 215.443 246.045 216.473Z" fill="white"/>
<path opacity="0.2" d="M85.1145 201.152C85.1284 201.37 85.1964 201.58 85.3122 201.764C85.428 201.948 85.588 202.1 85.7774 202.206C86.1426 202.403 86.5344 202.545 86.9405 202.627C87.7223 202.85 88.4756 203.165 89.1851 203.563C89.7795 203.952 90.4015 204.296 91.046 204.593C91.1101 204.622 91.1794 204.637 91.2496 204.637C91.3197 204.637 91.389 204.622 91.4531 204.593C91.5197 204.563 91.5784 204.518 91.6248 204.461C91.6711 204.404 91.7039 204.337 91.7206 204.266C91.7938 203.959 91.7995 203.639 91.7372 203.33C91.6749 203.021 91.5462 202.729 91.36 202.475C90.8901 201.758 90.2562 201.165 89.5115 200.745C88.7668 200.326 87.933 200.092 87.08 200.064C86.7514 200.036 86.4207 200.08 86.1099 200.191C85.7991 200.302 85.5153 200.478 85.2773 200.708C85.1726 200.832 85.1149 200.989 85.1145 201.152Z" fill="white"/>
<path opacity="0.2" d="M227.704 165.77C228.65 166.158 229.622 166.483 230.611 166.741L233.1 167.455C233.276 167.514 233.462 167.538 233.647 167.525C233.832 167.484 233.999 167.385 234.125 167.242C234.25 167.099 234.327 166.919 234.345 166.73C234.798 163.359 229.204 159.637 226.39 161.591C225.981 161.869 225.681 162.282 225.541 162.758C225.401 163.234 225.429 163.744 225.622 164.201C225.896 164.673 226.3 165.056 226.785 165.302C227.081 165.477 227.388 165.633 227.704 165.77Z" fill="white"/>
<path opacity="0.2" d="M116.145 162.528C116.324 162.927 116.43 163.355 116.459 163.792C116.459 164.435 116.389 165.196 116.878 165.618C117.086 165.79 117.347 165.884 117.616 165.884C117.885 165.884 118.146 165.79 118.355 165.618C118.763 165.265 119.068 164.808 119.238 164.295C119.748 163.227 119.864 162.011 119.564 160.866C119.381 160.257 118.967 159.745 118.412 159.441C117.857 159.136 117.206 159.064 116.598 159.239C114.703 159.847 115.563 161.252 116.145 162.528Z" fill="white"/>
<path opacity="0.2" d="M167.97 189.319C168.171 189.634 168.452 189.889 168.784 190.057L175.227 193.931C175.342 194.025 175.486 194.075 175.635 194.071C175.89 194.071 176.018 193.767 176.088 193.521C176.252 192.621 176.149 191.692 175.794 190.849C175.438 190.007 174.845 189.288 174.088 188.781C172.925 187.786 171.378 186.779 169.784 187.154C168.796 187.388 167.354 188.055 167.97 189.319Z" fill="white"/>
<path d="M277.455 159.759C278.452 153.576 274.28 147.75 268.136 146.747C261.993 145.743 256.204 149.942 255.206 156.125C254.209 162.307 258.381 168.133 264.525 169.137C270.669 170.14 276.458 165.942 277.455 159.759Z" fill="#008DFF"/>
<path opacity="0.4" d="M277.455 159.759C278.452 153.576 274.28 147.75 268.136 146.747C261.993 145.743 256.204 149.942 255.206 156.125C254.209 162.307 258.381 168.133 264.525 169.137C270.669 170.14 276.458 165.942 277.455 159.759Z" fill="white"/>
<path d="M266.375 146.586C264.146 146.586 261.967 147.252 260.114 148.498C258.261 149.744 256.816 151.515 255.963 153.588C255.11 155.66 254.887 157.941 255.322 160.141C255.757 162.341 256.83 164.362 258.406 165.948C259.982 167.534 261.99 168.614 264.177 169.052C266.363 169.489 268.629 169.265 270.688 168.406C272.747 167.548 274.507 166.094 275.746 164.229C276.984 162.364 277.645 160.171 277.645 157.928C277.645 157.233 277.579 156.539 277.447 155.856C278.099 159.204 272.795 164.049 266.375 160.714C259.955 157.378 261.072 148.693 266.375 146.586Z" fill="#008DFF"/>
<path opacity="0.2" d="M266.375 146.586C264.146 146.586 261.967 147.252 260.114 148.498C258.261 149.744 256.816 151.515 255.963 153.588C255.11 155.66 254.887 157.941 255.322 160.141C255.757 162.341 256.83 164.362 258.406 165.948C259.982 167.534 261.99 168.614 264.177 169.052C266.363 169.489 268.629 169.265 270.688 168.406C272.747 167.548 274.507 166.094 275.746 164.229C276.984 162.364 277.645 160.171 277.645 157.928C277.645 157.233 277.579 156.539 277.447 155.856C278.099 159.204 272.795 164.049 266.375 160.714C259.955 157.378 261.072 148.693 266.375 146.586Z" fill="white"/>
<path d="M275.866 163.944C275.645 164.225 271.725 169 264.235 166.507C256.49 163.932 255.989 153.222 260.188 148.435C258.775 149.362 257.587 150.596 256.711 152.046C255.835 153.497 255.293 155.127 255.126 156.816C254.959 158.505 255.172 160.21 255.747 161.805C256.322 163.401 257.246 164.846 258.45 166.035C259.654 167.223 261.108 168.125 262.704 168.672C264.3 169.22 265.999 169.4 267.673 169.2C269.348 168.999 270.957 168.422 272.381 167.513C273.805 166.603 275.008 165.383 275.901 163.944H275.866Z" fill="#008DFF"/>
<path opacity="0.3" d="M267.992 154.405C268.546 154.925 269.063 155.485 269.538 156.079C270.681 157.923 271.267 160.062 271.225 162.235C271.306 163.616 272.26 164.646 273.551 163.722C274.394 163.016 274.962 162.034 275.156 160.948C275.88 158.408 275.691 155.693 274.621 153.281C273.7 151.372 272.127 149.859 270.19 149.021C269.63 148.759 269.006 148.671 268.396 148.769C267.787 148.867 267.221 149.146 266.77 149.571C265.607 150.929 266.293 152.567 267.329 153.749C267.538 153.972 267.782 154.194 267.992 154.405Z" fill="white"/>
<path opacity="0.3" d="M268.829 166.414C268.844 166.584 268.899 166.749 268.99 166.893C269.081 167.038 269.205 167.159 269.353 167.245C269.465 167.31 269.586 167.358 269.713 167.385C270.193 167.513 270.703 167.449 271.136 167.207C271.57 166.965 271.893 166.563 272.039 166.086C272.098 165.909 272.115 165.722 272.088 165.537C272.06 165.353 271.989 165.179 271.881 165.028C271.773 164.876 271.631 164.754 271.466 164.669C271.302 164.584 271.119 164.54 270.934 164.541C270.625 164.538 270.319 164.601 270.037 164.726C269.754 164.851 269.501 165.035 269.294 165.266C269.034 165.546 268.884 165.913 268.876 166.296L268.829 166.414Z" fill="white"/>
<path d="M186.835 276.95C186.835 278.424 186.4 279.866 185.586 281.092C184.772 282.318 183.615 283.274 182.261 283.838C180.907 284.402 179.418 284.55 177.981 284.262C176.544 283.975 175.223 283.265 174.187 282.222C173.151 281.179 172.446 279.851 172.16 278.404C171.874 276.958 172.021 275.459 172.581 274.097C173.142 272.734 174.092 271.57 175.31 270.751C176.528 269.931 177.961 269.494 179.426 269.494C181.39 269.497 183.273 270.284 184.661 271.681C186.05 273.079 186.832 274.973 186.835 276.95Z" fill="#008DFF"/>
<path opacity="0.6" d="M186.835 276.95C186.835 278.424 186.4 279.866 185.586 281.092C184.772 282.318 183.615 283.274 182.261 283.838C180.907 284.402 179.418 284.55 177.981 284.262C176.544 283.975 175.223 283.265 174.187 282.222C173.151 281.179 172.446 279.851 172.16 278.404C171.874 276.958 172.021 275.459 172.581 274.097C173.142 272.734 174.092 271.57 175.31 270.751C176.528 269.931 177.961 269.494 179.426 269.494C181.39 269.497 183.273 270.284 184.661 271.681C186.05 273.079 186.832 274.973 186.835 276.95Z" fill="white"/>
<path d="M179.426 269.494C177.957 269.492 176.521 269.928 175.299 270.748C174.077 271.567 173.124 272.734 172.561 274.098C171.998 275.463 171.85 276.966 172.136 278.415C172.422 279.865 173.129 281.197 174.167 282.242C175.206 283.287 176.529 283.998 177.969 284.286C179.41 284.574 180.903 284.425 182.259 283.858C183.615 283.292 184.774 282.333 185.589 281.103C186.403 279.873 186.837 278.428 186.834 276.95C186.833 276.49 186.79 276.032 186.706 275.58C187.137 277.793 183.613 280.976 179.426 278.787C175.239 276.599 175.983 270.875 179.426 269.494Z" fill="#008DFF"/>
<path opacity="0.4" d="M179.426 269.494C177.957 269.492 176.521 269.928 175.299 270.748C174.077 271.567 173.124 272.734 172.561 274.098C171.998 275.463 171.85 276.966 172.136 278.415C172.422 279.865 173.129 281.197 174.167 282.242C175.206 283.287 176.529 283.998 177.969 284.286C179.41 284.574 180.903 284.425 182.259 283.858C183.615 283.292 184.774 282.333 185.589 281.103C186.403 279.873 186.837 278.428 186.834 276.95C186.833 276.49 186.79 276.032 186.706 275.58C187.137 277.793 183.613 280.976 179.426 278.787C175.239 276.599 175.983 270.875 179.426 269.494Z" fill="white"/>
<path opacity="0.5" d="M185.706 280.906C185.555 281.094 182.985 284.242 178.03 282.592C173.076 280.941 172.611 273.86 175.367 270.712C174.441 271.323 173.663 272.135 173.09 273.088C172.516 274.042 172.163 275.113 172.055 276.222C171.948 277.331 172.088 278.45 172.467 279.497C172.846 280.544 173.453 281.493 174.244 282.273C175.035 283.053 175.99 283.644 177.038 284.004C178.086 284.363 179.201 284.482 180.3 284.351C181.4 284.22 182.456 283.842 183.392 283.246C184.327 282.65 185.118 281.851 185.706 280.906Z" fill="#008DFF"/>
<path opacity="0.3" d="M180.531 274.633C180.895 274.974 181.233 275.341 181.543 275.733C182.316 276.944 182.72 278.355 182.706 279.794C182.706 280.696 183.38 281.374 184.264 280.766C184.815 280.297 185.189 279.653 185.323 278.94C185.8 277.269 185.672 275.481 184.962 273.895C184.36 272.64 183.328 271.646 182.055 271.098C181.686 270.924 181.273 270.866 180.871 270.931C180.469 270.995 180.095 271.18 179.798 271.461C179.019 272.35 179.496 273.427 180.17 274.2C180.31 274.352 180.391 274.492 180.531 274.633Z" fill="white"/>
<path opacity="0.3" d="M181.089 282.533C181.097 282.645 181.132 282.754 181.191 282.849C181.25 282.945 181.33 283.025 181.426 283.083C181.498 283.126 181.577 283.158 181.659 283.177C181.97 283.251 182.297 283.204 182.575 283.046C182.854 282.887 183.062 282.629 183.159 282.322C183.195 282.207 183.204 282.084 183.185 281.965C183.166 281.845 183.12 281.731 183.05 281.633C182.98 281.534 182.889 281.453 182.782 281.396C182.676 281.339 182.558 281.308 182.438 281.304C182.234 281.299 182.031 281.339 181.844 281.422C181.657 281.505 181.49 281.629 181.356 281.784C181.185 281.969 181.085 282.21 181.077 282.463C181.076 282.487 181.08 282.511 181.089 282.533Z" fill="white"/>
<path d="M75.2056 179.054C76.4259 180.162 77.2924 181.61 77.6956 183.214C78.0988 184.818 78.0207 186.506 77.471 188.065C76.9214 189.624 75.9249 190.984 74.6075 191.973C73.2901 192.963 71.7108 193.537 70.0692 193.624C68.4276 193.71 66.7974 193.305 65.3844 192.46C63.9714 191.615 62.839 190.367 62.1304 188.874C61.4218 187.381 61.1687 185.711 61.4031 184.073C61.6375 182.436 62.3488 180.905 63.4472 179.674C64.1781 178.856 65.0623 178.19 66.0492 177.715C67.0361 177.241 68.1063 176.967 69.1985 176.909C70.2908 176.852 71.3836 177.011 72.4144 177.38C73.4451 177.748 74.3937 178.317 75.2056 179.054Z" fill="#008DFF"/>
<path opacity="0.4" d="M75.2056 179.054C76.4259 180.162 77.2924 181.61 77.6956 183.214C78.0988 184.818 78.0207 186.506 77.471 188.065C76.9214 189.624 75.9249 190.984 74.6075 191.973C73.2901 192.963 71.7108 193.537 70.0692 193.624C68.4276 193.71 66.7974 193.305 65.3844 192.46C63.9714 191.615 62.839 190.367 62.1304 188.874C61.4218 187.381 61.1687 185.711 61.4031 184.073C61.6375 182.436 62.3488 180.905 63.4472 179.674C64.1781 178.856 65.0623 178.19 66.0492 177.715C67.0361 177.241 68.1063 176.967 69.1985 176.909C70.2908 176.852 71.3836 177.011 72.4144 177.38C73.4451 177.748 74.3937 178.317 75.2056 179.054Z" fill="white"/>
<path d="M63.4472 179.675C62.3488 180.905 61.6375 182.436 61.4031 184.074C61.1687 185.711 61.4218 187.382 62.1304 188.874C62.839 190.367 63.9714 191.615 65.3844 192.46C66.7974 193.306 68.4276 193.711 70.0692 193.624C71.7108 193.537 73.2901 192.963 74.6075 191.974C75.9249 190.984 76.9214 189.624 77.471 188.065C78.0207 186.506 78.0988 184.818 77.6956 183.214C77.2924 181.61 76.4259 180.163 75.2056 179.054C74.8261 178.709 74.413 178.403 73.9728 178.141C76.136 179.441 76.1128 184.778 71.1466 186.662C66.1804 188.547 62.0051 183.596 63.4472 179.675Z" fill="#008DFF"/>
<path opacity="0.2" d="M63.4472 179.675C62.3488 180.905 61.6375 182.436 61.4031 184.074C61.1687 185.711 61.4218 187.382 62.1304 188.874C62.839 190.367 63.9714 191.615 65.3844 192.46C66.7974 193.306 68.4276 193.711 70.0692 193.624C71.7108 193.537 73.2901 192.963 74.6075 191.974C75.9249 190.984 76.9214 189.624 77.471 188.065C78.0207 186.506 78.0988 184.818 77.6956 183.214C77.2924 181.61 76.4259 180.163 75.2056 179.054C74.8261 178.709 74.413 178.403 73.9728 178.141C76.136 179.441 76.1128 184.778 71.1466 186.662C66.1804 188.547 62.0051 183.596 63.4472 179.675Z" fill="white"/>
<path d="M77.6366 182.975C77.6366 183.245 78.3461 187.762 73.2636 190.689C68.1811 193.615 61.9472 188.675 61.4122 183.994C61.2259 185.229 61.3167 186.49 61.6779 187.685C62.0392 188.88 62.6616 189.978 63.4997 190.9C64.3378 191.821 65.3702 192.542 66.5212 193.01C67.6721 193.477 68.9125 193.68 70.1513 193.602C71.3902 193.524 72.596 193.168 73.6803 192.56C74.7647 191.953 75.7001 191.108 76.4179 190.089C77.1357 189.07 77.6177 187.902 77.8286 186.671C78.0395 185.44 77.9739 184.177 77.6366 182.975Z" fill="#008DFF"/>
<path opacity="0.3" d="M68.5412 182.601C69.0987 182.56 69.6584 182.56 70.216 182.601C71.788 182.881 73.2461 183.613 74.4145 184.708C75.2054 185.351 76.2289 185.328 76.3917 184.134C76.4191 183.32 76.1642 182.521 75.6706 181.875C74.6482 180.213 73.0743 178.969 71.2278 178.364C69.7312 177.935 68.1318 178.055 66.7152 178.703C66.2995 178.889 65.9468 179.192 65.7008 179.577C65.4549 179.962 65.3263 180.411 65.3312 180.869C65.4824 182.191 66.7268 182.613 67.8783 182.624L68.5412 182.601Z" fill="white"/>
<path opacity="0.3" d="M75.5083 188.078C75.6075 188.156 75.7239 188.208 75.8474 188.23C75.9709 188.253 76.098 188.245 76.2178 188.207C76.3078 188.183 76.3913 188.139 76.462 188.078C76.7594 187.873 76.9689 187.563 77.0487 187.209C77.1284 186.855 77.0726 186.485 76.8923 186.17C76.8204 186.055 76.7235 185.958 76.609 185.886C76.4945 185.814 76.3653 185.769 76.2311 185.755C76.0968 185.74 75.9611 185.756 75.8339 185.802C75.7067 185.848 75.5915 185.922 75.4967 186.018C75.3436 186.188 75.2282 186.388 75.158 186.606C75.0878 186.824 75.0645 187.055 75.0896 187.282C75.1114 187.566 75.2355 187.833 75.4385 188.031L75.5083 188.078Z" fill="white"/>
<path d="M70.484 154.03C71.1044 154.598 71.5438 155.338 71.7468 156.157C71.9498 156.976 71.9072 157.837 71.6245 158.631C71.3418 159.426 70.8316 160.118 70.1583 160.621C69.4849 161.124 68.6787 161.415 67.8411 161.458C67.0036 161.5 66.1724 161.292 65.4523 160.859C64.7322 160.427 64.1556 159.79 63.7951 159.028C63.4346 158.266 63.3064 157.413 63.4267 156.578C63.547 155.743 63.9104 154.962 64.4711 154.335C64.846 153.917 65.299 153.578 65.8041 153.337C66.3092 153.096 66.8566 152.957 67.4149 152.929C67.9733 152.901 68.5317 152.984 69.0583 153.173C69.5849 153.362 70.0694 153.653 70.484 154.03Z" fill="#008DFF"/>
<path opacity="0.4" d="M70.484 154.03C71.1044 154.598 71.5438 155.338 71.7468 156.157C71.9498 156.976 71.9072 157.837 71.6245 158.631C71.3418 159.426 70.8316 160.118 70.1583 160.621C69.4849 161.124 68.6787 161.415 67.8411 161.458C67.0036 161.5 66.1724 161.292 65.4523 160.859C64.7322 160.427 64.1556 159.79 63.7951 159.028C63.4346 158.266 63.3064 157.413 63.4267 156.578C63.547 155.743 63.9104 154.962 64.4711 154.335C64.846 153.917 65.299 153.578 65.8041 153.337C66.3092 153.096 66.8566 152.957 67.4149 152.929C67.9733 152.901 68.5317 152.984 69.0583 153.173C69.5849 153.362 70.0694 153.653 70.484 154.03Z" fill="white"/>
<path d="M64.4708 154.335C63.9062 154.963 63.5395 155.746 63.417 156.584C63.2945 157.422 63.4217 158.278 63.7826 159.044C64.1435 159.809 64.7218 160.45 65.4444 160.884C66.167 161.319 67.0014 161.528 67.8422 161.486C68.683 161.443 69.4924 161.151 70.1681 160.645C70.8437 160.14 71.3552 159.444 71.6379 158.646C71.9207 157.848 71.9619 156.984 71.7565 156.162C71.551 155.341 71.1081 154.599 70.4838 154.03C70.2909 153.853 70.0805 153.696 69.8557 153.562C70.949 154.218 70.9373 156.945 68.4135 157.905C67.901 158.112 67.3411 158.17 66.7973 158.073C66.2535 157.976 65.7476 157.727 65.3371 157.356C64.9265 156.984 64.6277 156.504 64.4746 155.97C64.3215 155.436 64.3202 154.869 64.4708 154.335Z" fill="#008DFF"/>
<path opacity="0.2" d="M64.4708 154.335C63.9062 154.963 63.5395 155.746 63.417 156.584C63.2945 157.422 63.4217 158.278 63.7826 159.044C64.1435 159.809 64.7218 160.45 65.4444 160.884C66.167 161.319 67.0014 161.528 67.8422 161.486C68.683 161.443 69.4924 161.151 70.1681 160.645C70.8437 160.14 71.3552 159.444 71.6379 158.646C71.9207 157.848 71.9619 156.984 71.7565 156.162C71.551 155.341 71.1081 154.599 70.4838 154.03C70.2909 153.853 70.0805 153.696 69.8557 153.562C70.949 154.218 70.9373 156.945 68.4135 157.905C67.901 158.112 67.3411 158.17 66.7973 158.073C66.2535 157.976 65.7476 157.727 65.3371 157.356C64.9265 156.984 64.6277 156.504 64.4746 155.97C64.3215 155.436 64.3202 154.869 64.4708 154.335Z" fill="white"/>
<path d="M71.7168 156.032C71.7928 156.839 71.6191 157.65 71.2194 158.354C70.8196 159.058 70.2134 159.62 69.4838 159.964C66.8088 161.498 63.6685 158.934 63.4359 156.547C63.3398 157.177 63.3853 157.822 63.569 158.432C63.7527 159.043 64.0699 159.604 64.4975 160.076C64.9251 160.547 65.4521 160.915 66.0398 161.155C66.6275 161.394 67.261 161.498 67.8938 161.458C68.5266 161.419 69.1426 161.238 69.6965 160.927C70.2505 160.617 70.7284 160.186 71.095 159.665C71.4617 159.145 71.7079 158.548 71.8155 157.919C71.9231 157.291 71.8894 156.646 71.7168 156.032Z" fill="#008DFF"/>
<path opacity="0.3" d="M67.0763 155.844C67.3624 155.815 67.6508 155.815 67.9369 155.844C68.7396 155.985 69.4836 156.359 70.0769 156.921C70.4724 157.249 71.0074 157.237 71.0771 156.628C71.0985 156.208 70.9707 155.793 70.7166 155.458C70.1794 154.602 69.3535 153.971 68.3905 153.679C67.6214 153.445 66.7937 153.503 66.0644 153.843C65.8487 153.935 65.6655 154.09 65.5389 154.288C65.4123 154.487 65.3482 154.719 65.355 154.955C65.4364 155.622 66.0644 155.844 66.6576 155.844H67.0763Z" fill="white"/>
<path opacity="0.3" d="M70.6347 158.63C70.6836 158.672 70.7426 158.701 70.8058 158.713C70.8689 158.725 70.9342 158.721 70.9952 158.7C71.0423 158.686 71.0859 158.662 71.1232 158.63C71.2743 158.525 71.3802 158.367 71.4191 158.186C71.458 158.006 71.427 157.817 71.3325 157.659C71.2965 157.6 71.2477 157.55 71.1896 157.512C71.1316 157.475 71.0659 157.452 70.9976 157.444C70.9292 157.436 70.86 157.444 70.7951 157.467C70.7302 157.49 70.6714 157.527 70.6231 157.577C70.5466 157.666 70.4888 157.771 70.4528 157.883C70.4169 157.996 70.4036 158.114 70.4137 158.232C70.4266 158.376 70.4931 158.51 70.5998 158.607L70.6347 158.63Z" fill="white"/>
<path d="M315.63 203.856C315.848 204.671 315.822 205.533 315.554 206.333C315.286 207.133 314.788 207.835 314.124 208.35C313.46 208.866 312.659 209.172 311.822 209.23C310.985 209.288 310.15 209.095 309.422 208.676C308.694 208.256 308.106 207.629 307.732 206.874C307.358 206.118 307.214 205.268 307.32 204.431C307.425 203.593 307.775 202.806 308.324 202.168C308.874 201.531 309.599 201.071 310.408 200.848C310.947 200.699 311.51 200.659 312.065 200.73C312.619 200.8 313.155 200.981 313.64 201.26C314.125 201.54 314.551 201.913 314.892 202.358C315.234 202.804 315.484 203.313 315.63 203.856Z" fill="#008DFF"/>
<path opacity="0.4" d="M315.63 203.856C315.848 204.671 315.822 205.533 315.554 206.333C315.286 207.133 314.788 207.835 314.124 208.35C313.46 208.866 312.659 209.172 311.822 209.23C310.985 209.288 310.15 209.095 309.422 208.676C308.694 208.256 308.106 207.629 307.732 206.874C307.358 206.118 307.214 205.268 307.32 204.431C307.425 203.593 307.775 202.806 308.324 202.168C308.874 201.531 309.599 201.071 310.408 200.848C310.947 200.699 311.51 200.659 312.065 200.73C312.619 200.8 313.155 200.981 313.64 201.26C314.125 201.54 314.551 201.913 314.892 202.358C315.234 202.804 315.484 203.313 315.63 203.856Z" fill="white"/>
<path d="M310.408 200.848C309.599 201.071 308.874 201.531 308.324 202.169C307.775 202.806 307.425 203.593 307.32 204.431C307.214 205.268 307.358 206.118 307.732 206.874C308.106 207.629 308.694 208.256 309.422 208.676C310.15 209.095 310.985 209.288 311.822 209.23C312.659 209.172 313.46 208.866 314.124 208.35C314.788 207.835 315.286 207.133 315.554 206.333C315.822 205.533 315.848 204.671 315.63 203.856C315.561 203.602 315.468 203.355 315.351 203.119C315.921 204.289 314.444 206.56 311.804 205.986C311.264 205.88 310.764 205.624 310.361 205.247C309.958 204.87 309.667 204.387 309.522 203.853C309.377 203.319 309.383 202.754 309.54 202.223C309.696 201.693 309.997 201.216 310.408 200.848Z" fill="#008DFF"/>
<path opacity="0.2" d="M310.408 200.848C309.599 201.071 308.874 201.531 308.324 202.169C307.775 202.806 307.425 203.593 307.32 204.431C307.214 205.268 307.358 206.118 307.732 206.874C308.106 207.629 308.694 208.256 309.422 208.676C310.15 209.095 310.985 209.288 311.822 209.23C312.659 209.172 313.46 208.866 314.124 208.35C314.788 207.835 315.286 207.133 315.554 206.333C315.822 205.533 315.848 204.671 315.63 203.856C315.561 203.602 315.468 203.355 315.351 203.119C315.921 204.289 314.444 206.56 311.804 205.986C311.264 205.88 310.764 205.624 310.361 205.247C309.958 204.87 309.667 204.387 309.522 203.853C309.377 203.319 309.383 202.754 309.54 202.223C309.696 201.693 309.997 201.216 310.408 200.848Z" fill="white"/>
<path d="M315.595 206.22C315.223 206.937 314.64 207.522 313.927 207.895C313.213 208.267 312.403 208.41 311.606 208.304C308.524 208.14 307.291 204.301 308.349 202.135C307.933 202.614 307.627 203.18 307.456 203.792C307.284 204.405 307.251 205.048 307.358 205.675C307.465 206.302 307.71 206.897 308.075 207.417C308.44 207.937 308.915 208.368 309.467 208.679C310.018 208.99 310.632 209.173 311.263 209.215C311.894 209.256 312.526 209.156 313.113 208.92C313.701 208.684 314.228 208.32 314.658 207.853C315.087 207.386 315.407 206.828 315.595 206.22Z" fill="#008DFF"/>
<path opacity="0.3" d="M311.792 203.493C312.045 203.63 312.29 203.783 312.524 203.95C313.115 204.512 313.538 205.23 313.746 206.021C313.908 206.513 314.35 206.794 314.746 206.326C314.983 205.985 315.094 205.57 315.06 205.155C315.073 204.158 314.735 203.187 314.106 202.416C313.584 201.816 312.867 201.422 312.082 201.305C311.856 201.271 311.625 201.305 311.418 201.403C311.212 201.501 311.038 201.658 310.919 201.855C310.629 202.463 311.047 203.025 311.536 203.318L311.792 203.493Z" fill="white"/>
<path opacity="0.3" d="M313.28 207.812C313.302 207.873 313.338 207.927 313.384 207.972C313.431 208.017 313.487 208.05 313.548 208.069H313.699C313.882 208.064 314.057 207.988 314.186 207.857C314.316 207.727 314.391 207.552 314.397 207.367C314.399 207.297 314.385 207.228 314.356 207.164C314.327 207.101 314.284 207.045 314.23 207.001C314.176 206.956 314.112 206.925 314.045 206.91C313.977 206.894 313.906 206.895 313.839 206.911C313.726 206.942 313.622 206.997 313.532 207.072C313.441 207.146 313.368 207.239 313.315 207.344C313.263 207.479 313.263 207.63 313.315 207.765L313.28 207.812Z" fill="white"/>
<path d="M197.976 269.038C197.883 263.186 194.871 260.143 186.52 253.541C177.309 246.249 177.32 240.397 171.005 240.397C164.69 240.397 164.701 246.249 155.49 253.541C147.139 260.143 144.127 263.162 144.034 269.038C143.918 273.135 146.546 277.231 151.931 280.391C162.468 286.513 179.542 286.513 190.079 280.391C195.429 277.231 198.092 273.088 197.976 269.038Z" fill="#008DFF"/>
<path opacity="0.35" d="M197.976 269.038C197.883 263.186 194.871 260.143 186.52 253.541C177.309 246.249 177.32 240.397 171.005 240.397C164.69 240.397 164.701 246.249 155.49 253.541C147.139 260.143 144.127 263.162 144.034 269.038C143.918 273.135 146.546 277.231 151.931 280.391C162.468 286.513 179.542 286.513 190.079 280.391C195.429 277.231 198.092 273.088 197.976 269.038Z" fill="white"/>
<path opacity="0.35" d="M186.125 279.712C181.774 280.989 177.2 281.306 172.716 280.641C168.232 279.976 163.944 278.346 160.143 275.861C157.836 274.463 156.019 272.377 154.944 269.892C152.327 262.741 159.317 257.216 162.446 251.692C163.83 249.257 164.772 246.554 166.156 244.154C166.995 242.714 168.119 241.463 169.459 240.479C164.586 241.38 163.865 246.834 155.502 253.494C147.14 260.154 144.139 263.115 144.046 268.991C143.93 273.087 146.558 277.184 151.943 280.344C162.481 286.466 179.554 286.466 190.091 280.344C192.884 278.862 195.205 276.619 196.79 273.872C193.757 276.658 190.097 278.662 186.125 279.712Z" fill="#008DFF"/>
<path opacity="0.3" d="M171.61 243.007C171.196 243.334 170.865 243.755 170.645 244.236C169.941 245.516 169.644 246.983 169.796 248.438C169.872 249.164 170.102 249.865 170.472 250.493C170.841 251.121 171.34 251.662 171.936 252.078C172.826 252.619 173.83 252.94 174.867 253.015C176.228 253.178 177.856 253.015 178.589 251.844C178.803 251.455 178.925 251.021 178.945 250.576C178.965 250.132 178.883 249.688 178.705 249.281C178.34 248.47 177.854 247.719 177.263 247.057L174.751 243.944C174.029 243.019 172.715 242.211 171.61 243.007Z" fill="white"/>
<path opacity="0.3" d="M178.926 256.479C178.92 256.537 178.92 256.596 178.926 256.654C178.274 261.617 183.334 263.139 185.904 266.275C187.192 267.704 187.937 269.545 188.009 271.472C187.884 273.466 187.14 275.37 185.881 276.915C184.601 278.682 186.044 279.104 187.486 278.553C189.147 277.929 190.64 276.923 191.847 275.616C193.129 274.225 194.029 272.522 194.457 270.675C194.885 268.827 194.828 266.9 194.29 265.082C193.499 262.589 191.08 260.271 189.288 258.492C187.497 256.713 179.868 250.311 178.926 256.479Z" fill="white"/>
<path d="M91.3834 303.882C81.4045 295.104 77.5549 286.524 75.1008 273.813C73.7866 267.165 67.0294 263.548 67.7388 256.573C68.1691 252.406 70.251 248.602 71.4954 244.599C72.7506 240.512 73.1467 236.207 72.6585 231.958C72.522 230.144 72.011 228.378 71.1581 226.773C67.8784 221.19 61.3537 223.531 55.9572 223.671C51.4213 223.788 45.5596 223.391 43.0009 218.99C42.1014 217.328 41.7006 215.439 41.8472 213.553C41.9938 211.666 42.6814 209.863 43.8266 208.362C46.0713 205.541 50.0606 204.851 53.6427 205.026C73.647 206.103 83.0677 225.193 83.8818 243.557C84.1493 249.538 83.6957 255.777 86.1381 261.231C91.3951 272.935 105.747 263.981 110.19 275.897C111.353 279.057 111.655 282.474 112.516 285.74C113.304 288.905 114.711 291.881 116.654 294.493C118.597 297.106 121.037 299.302 123.832 300.956C124.89 301.641 126.102 302.046 127.356 302.134C128.611 302.222 129.867 301.99 131.008 301.459C132.397 300.619 133.493 299.368 134.148 297.877C136.707 292.517 135.184 286.173 134.276 280.321C133.369 274.469 133.555 267.446 138.219 263.806C143.371 259.768 149.233 261.465 153.211 266.229C157.642 271.543 155.304 275.311 153.048 281.526C151.849 284.835 151.034 288.271 150.617 291.768C150.105 296.016 150.617 301.131 154.304 303.297C158.247 305.637 163.248 302.992 166.481 299.785C168.377 297.901 170.331 292.002 173.308 291.428C178.321 290.457 180.531 303.601 183.915 306.855C187.079 309.886 191.998 311.537 195.906 309.547C198.639 308.189 200.372 305.415 201.872 302.735C206.886 293.834 211.079 284.49 214.398 274.82C215.294 272.221 216.201 269.459 218.26 267.645C220.318 265.831 223.912 265.48 225.552 267.645C226.04 268.312 226.308 269.12 226.831 269.752C228.32 271.543 231.332 271.145 233.065 269.588C234.798 268.031 235.612 265.714 236.496 263.548C240.171 254.487 246.007 246.475 253.488 240.221C255.279 238.712 258.955 238.033 259.106 240.374C259.048 241.18 258.72 241.944 258.175 242.539C255.363 246.489 253.59 251.091 253.023 255.917C252.895 257.088 252.93 258.398 253.849 259.042C255.012 259.838 256.477 259.042 257.559 258.188C264.539 252.653 269.576 245.016 271.934 236.394C274.039 228.634 274.19 219.669 279.854 214.004C286.077 207.789 297.94 209.099 302.662 216.52C304.418 219.271 305.197 222.911 303.732 225.884C301.836 229.664 297.184 230.846 293.264 232.356C284.041 235.867 276.598 243.288 271.515 251.821C266.433 260.353 263.537 270.009 261.443 279.736C260.52 284.935 258.501 289.876 255.524 294.226C241.067 313.62 217.178 329.901 171.005 329.901C124.833 329.901 97.3964 309.172 91.3834 303.882Z" fill="#008DFF"/>
<path opacity="0.4" d="M91.3834 303.882C81.4045 295.104 77.5549 286.524 75.1008 273.813C73.7866 267.165 67.0294 263.548 67.7388 256.573C68.1691 252.406 70.251 248.602 71.4954 244.599C72.7506 240.512 73.1467 236.207 72.6585 231.958C72.522 230.144 72.011 228.378 71.1581 226.773C67.8784 221.19 61.3537 223.531 55.9572 223.671C51.4213 223.788 45.5596 223.391 43.0009 218.99C42.1014 217.328 41.7006 215.439 41.8472 213.553C41.9938 211.666 42.6814 209.863 43.8266 208.362C46.0713 205.541 50.0606 204.851 53.6427 205.026C73.647 206.103 83.0677 225.193 83.8818 243.557C84.1493 249.538 83.6957 255.777 86.1381 261.231C91.3951 272.935 105.747 263.981 110.19 275.897C111.353 279.057 111.655 282.474 112.516 285.74C113.304 288.905 114.711 291.881 116.654 294.493C118.597 297.106 121.037 299.302 123.832 300.956C124.89 301.641 126.102 302.046 127.356 302.134C128.611 302.222 129.867 301.99 131.008 301.459C132.397 300.619 133.493 299.368 134.148 297.877C136.707 292.517 135.184 286.173 134.276 280.321C133.369 274.469 133.555 267.446 138.219 263.806C143.371 259.768 149.233 261.465 153.211 266.229C157.642 271.543 155.304 275.311 153.048 281.526C151.849 284.835 151.034 288.271 150.617 291.768C150.105 296.016 150.617 301.131 154.304 303.297C158.247 305.637 163.248 302.992 166.481 299.785C168.377 297.901 170.331 292.002 173.308 291.428C178.321 290.457 180.531 303.601 183.915 306.855C187.079 309.886 191.998 311.536 195.906 309.547C198.639 308.189 200.372 305.415 201.872 302.735C206.886 293.834 211.079 284.49 214.398 274.82C215.294 272.221 216.201 269.459 218.26 267.645C220.318 265.831 223.912 265.48 225.552 267.645C226.04 268.312 226.308 269.12 226.831 269.752C228.32 271.542 231.332 271.145 233.065 269.588C234.798 268.031 235.612 265.714 236.496 263.548C240.171 254.487 246.007 246.475 253.488 240.221C255.279 238.712 258.955 238.033 259.106 240.374C259.048 241.18 258.72 241.944 258.175 242.539C255.363 246.489 253.59 251.091 253.023 255.917C252.895 257.088 252.93 258.398 253.849 259.042C255.012 259.838 256.477 259.042 257.559 258.188C264.539 252.653 269.576 245.016 271.934 236.394C274.039 228.634 274.19 219.669 279.854 214.004C286.077 207.789 297.94 209.099 302.662 216.52C304.418 219.271 305.197 222.911 303.732 225.884C301.836 229.664 297.184 230.846 293.264 232.356C284.041 235.867 276.598 243.288 271.515 251.821C266.433 260.353 263.537 270.009 261.443 279.736C260.52 284.935 258.501 289.876 255.524 294.226C241.067 313.62 217.178 329.901 171.005 329.901C124.833 329.901 97.3964 309.172 91.3834 303.882Z" fill="white"/>
<path opacity="0.3" d="M170.819 327.08C147.093 325.699 120.436 317.377 101.142 303.402C93.1273 297.568 87.1578 289.328 84.0914 279.864C82.2538 274.352 83.3005 270.442 79.3578 266.17C76.9038 263.525 72.7168 261.781 70.8211 258.609C69.2277 255.952 69.3905 252.277 69.7627 249.246C68.7452 251.603 68.0451 254.087 67.6809 256.631C66.9714 263.654 73.7287 267.165 75.0429 273.872C77.5551 286.583 81.4048 295.162 91.3255 303.94C97.3966 309.172 124.833 329.901 171.006 329.901C188.719 329.901 203.152 327.501 215.027 323.452C200.396 326.179 185.637 327.946 170.819 327.08ZM153.374 307.651C156.584 308.985 160.433 307.721 162.946 305.31C164.677 303.556 166.014 301.449 166.865 299.13C166.714 299.327 166.551 299.515 166.377 299.692C163.143 302.922 158.142 305.544 154.2 303.203C150.513 301.061 150.001 295.923 150.513 291.674C150.594 290.995 150.699 290.316 150.815 289.649C149.464 292.125 148.599 294.839 148.268 297.643C148.001 301.658 149.757 306.117 153.432 307.662L153.374 307.651ZM112.132 301.143C116.157 304.245 121.101 305.894 126.17 305.825C128.311 305.904 130.445 305.537 132.439 304.748C137.405 302.606 139.987 297.187 142.15 292.189C143.152 290.149 143.849 287.972 144.221 285.728C144.401 284.601 144.333 283.447 144.022 282.349C143.71 281.25 143.163 280.234 142.418 279.373C141.125 278.325 139.753 277.382 138.312 276.552C137.138 275.634 136.196 274.449 135.563 273.094C134.93 271.739 134.625 270.253 134.672 268.757C133.608 272.495 133.437 276.433 134.172 280.251C135.079 286.103 136.603 292.435 134.044 297.807C133.389 299.298 132.292 300.549 130.904 301.389C129.762 301.92 128.506 302.152 127.252 302.064C125.997 301.976 124.785 301.571 123.728 300.885C120.932 299.232 118.492 297.035 116.549 294.423C114.606 291.81 113.2 288.835 112.411 285.67C111.586 282.404 111.248 278.986 110.085 275.826C109.691 274.726 109.125 273.695 108.411 272.771C108.666 274.135 108.69 275.532 108.48 276.903C107.91 280.613 106.154 284.113 105.957 287.858C105.889 290.409 106.418 292.94 107.501 295.248C108.584 297.555 110.19 299.575 112.19 301.143H112.132ZM71.0886 226.773C71.9415 228.378 72.4525 230.144 72.5889 231.958C72.7145 233.124 72.7767 234.296 72.775 235.469C73.856 233.758 74.4364 231.774 74.4498 229.746C74.3451 225.591 71.0886 222.115 67.4017 220.242C63.7149 218.369 59.5628 217.69 55.6201 216.473C53.7393 216 51.9947 215.09 50.526 213.816C49.7997 213.168 49.2702 212.326 48.9986 211.388C48.7269 210.45 48.7242 209.454 48.9908 208.514C49.6886 206.583 51.7588 205.518 53.7476 205.003H53.5731C49.991 204.816 46.0017 205.518 43.7571 208.339C42.6118 209.839 41.9242 211.643 41.7776 213.529C41.631 215.416 42.0318 217.305 42.9313 218.966C45.49 223.391 51.3517 223.788 55.8876 223.648C61.3423 223.531 67.8669 221.19 71.1467 226.773H71.0886ZM302.534 216.473C299.161 211.171 292.16 209.006 286.158 210.457C287.399 210.656 288.623 210.945 289.822 211.323C292.297 211.938 294.567 213.197 296.405 214.975C302.127 221.143 294.404 226.469 289.578 229.383C281.704 234.135 274.528 241.17 272.388 250.112C277.424 242.27 284.495 235.587 293.137 232.251C297.056 230.741 301.708 229.559 303.604 225.778C305.151 222.864 304.372 219.224 302.615 216.473H302.534ZM232.938 269.541C231.251 271.051 228.367 271.461 226.843 269.834C228.006 272.584 230.146 275.592 232.286 276.189C235.38 277.055 236.938 273.743 237.846 271.344C239.761 266.381 241.629 261.403 243.451 256.409C245.161 251.727 247.092 246.682 250.255 242.972C244.247 248.76 239.516 255.754 236.369 263.502C235.566 265.667 234.764 267.984 233.019 269.541H232.938ZM214.271 274.738C210.951 284.408 206.758 293.752 201.745 302.653C200.244 305.333 198.511 308.107 195.778 309.465C191.871 311.419 186.951 309.804 183.787 306.773C181.799 304.853 180.205 299.516 178.216 295.642C179.705 301.705 179.379 308.599 183.752 312.871C185.265 314.237 187.102 315.189 189.086 315.633C191.07 316.078 193.135 316.001 195.081 315.411C202.838 313.163 207.327 303.484 210.2 296.531C213.689 287.987 215.562 278.858 218.714 270.185C219.11 268.857 219.776 267.625 220.667 266.568C220.807 266.428 220.958 266.299 221.109 266.17C220.02 266.363 219 266.844 218.155 267.563C216.155 269.377 215.201 272.139 214.352 274.738H214.271Z" fill="#008DFF"/>
<path opacity="0.3" d="M46.1878 208.947C45.0248 209.966 44.1525 211.78 45.0248 213.126C45.9785 214.706 48.2813 214.495 50.1073 214.238C54.8405 213.563 59.6482 213.614 64.3662 214.39C65.285 214.554 68.7974 215.619 69.4952 214.765C70.6582 213.395 66.2387 210.949 65.4245 210.469C59.935 207.309 51.7355 204.277 46.1878 208.947Z" fill="white"/>
<path opacity="0.3" d="M70.2044 251.563C69.8671 252.581 69.5531 253.6 69.2739 254.63C68.6711 256.89 68.9455 259.296 70.0415 261.36C70.5882 262.39 71.9489 264.157 73.3097 263.63C74.6705 263.104 74.9845 260.973 74.9728 259.721C74.9728 258.024 74.81 256.327 74.7984 254.653C74.7984 252.733 74.938 250.814 74.9612 248.906C75.1274 247.185 74.7791 245.453 73.961 243.932C73.8331 243.744 73.6586 243.545 73.4376 243.581C73.2167 243.616 73.0771 243.861 72.9957 244.084C72.042 246.577 71.0534 249.047 70.2044 251.563Z" fill="white"/>
<path opacity="0.3" d="M98.2338 270.735C97.7147 270.755 97.2056 270.885 96.739 271.114C96.2724 271.344 95.8585 271.669 95.5239 272.069C94.4307 273.556 95.1052 275.768 96.4195 277.067C97.8361 278.221 99.4009 279.178 101.072 279.911C103.205 281.091 105.086 282.682 106.608 284.593C107.294 285.459 108.573 288.76 109.946 288.35C110.08 288.318 110.2 288.239 110.283 288.128C110.36 287.985 110.393 287.822 110.376 287.66V285.061C110.376 281.14 109.678 277.477 107.038 274.445C105.961 273.178 104.603 272.182 103.074 271.537C101.545 270.893 99.8873 270.618 98.2338 270.735Z" fill="white"/>
<path opacity="0.3" d="M140.011 268.815C140.197 270.29 140.923 271.642 142.046 272.608C143.159 273.559 144.117 274.681 144.884 275.932C145.628 277.418 145.872 279.443 147.419 280.052C148.792 280.567 150.257 279.49 151.129 278.296C152.99 275.745 154.13 271.695 152.63 268.722C151.595 266.685 148.35 264.04 145.989 263.97C143.453 263.888 139.929 266.006 140.011 268.815Z" fill="white"/>
<path opacity="0.3" d="M172.331 294.67C172.098 295.034 171.948 295.446 171.894 295.875C171.84 296.305 171.882 296.741 172.017 297.152C172.294 297.983 172.686 298.771 173.18 299.493C175.064 302.6 176.649 305.88 177.914 309.289C178.18 310.178 178.597 311.013 179.147 311.759C179.752 310.949 180.1 309.974 180.147 308.962C180.527 305.472 179.905 301.947 178.356 298.802C177.577 297.222 174.495 291.744 172.331 294.67Z" fill="white"/>
<path opacity="0.3" d="M219.051 270.29C219.078 270.712 219.197 271.124 219.398 271.495C219.598 271.867 219.877 272.191 220.214 272.444C220.876 272.949 221.567 273.415 222.284 273.837C223.68 274.774 224.811 276.061 225.564 277.57C225.777 278.111 226.089 278.607 226.483 279.033C226.683 279.242 226.954 279.369 227.242 279.389C227.53 279.408 227.815 279.319 228.041 279.139C228.298 278.806 228.422 278.389 228.39 277.968C228.517 276.515 228.395 275.05 228.03 273.638C227.413 271.398 225.97 269.48 223.994 268.277C222.179 267.352 219.086 267.75 219.051 270.29Z" fill="white"/>
<path opacity="0.3" d="M282.285 215.455C280.757 216.832 279.518 218.502 278.639 220.367C277.76 222.232 277.26 224.255 277.168 226.317C277.12 226.69 277.197 227.07 277.389 227.394C277.582 227.627 277.849 227.788 278.145 227.85C280.261 228.459 282.308 226.937 284.169 225.778C286.935 224.068 290.039 222.985 293.264 222.606C295.462 222.361 297.986 222.29 299.393 220.57C302.603 216.614 297.218 212.868 293.962 211.92C290.054 210.762 285.216 212.857 282.285 215.455Z" fill="white"/>
<path opacity="0.3" d="M287.473 216.251C287.462 216.812 287.615 217.364 287.912 217.838C288.21 218.312 288.64 218.688 289.147 218.92C290.827 219.74 292.678 220.141 294.544 220.09C296.731 220.172 298.859 218.299 297.731 216.087C297.217 215.249 296.493 214.562 295.631 214.095C294.77 213.629 293.801 213.399 292.823 213.43C290.799 213.325 287.868 213.805 287.473 216.251Z" fill="white"/>
<path opacity="0.3" d="M221.016 270.642C221.128 270.828 221.295 270.976 221.493 271.063L224.098 272.585C224.26 272.714 224.449 272.805 224.65 272.849C224.852 272.894 225.061 272.892 225.261 272.842C225.46 272.698 225.608 272.496 225.685 272.262C225.762 272.029 225.765 271.777 225.692 271.543C225.55 270.92 225.243 270.348 224.802 269.888C224.362 269.428 223.805 269.098 223.191 268.933C222.284 268.652 220.307 269.202 221.016 270.642Z" fill="white"/>
<path opacity="0.3" d="M144.604 267.247C144.444 267.583 144.36 267.951 144.36 268.324C144.36 268.697 144.444 269.065 144.604 269.401C144.913 270.079 145.304 270.715 145.767 271.297C146.39 272.189 146.95 273.123 147.442 274.094C147.66 274.71 148.067 275.239 148.605 275.604C149.06 275.758 149.553 275.761 150.01 275.611C150.466 275.461 150.863 275.168 151.141 274.773C151.806 273.931 152.2 272.905 152.268 271.831C152.337 270.758 152.077 269.689 151.524 268.769C150.998 268.01 150.349 267.346 149.605 266.802C148.221 265.784 145.616 265.527 144.604 267.247Z" fill="white"/>
<path opacity="0.3" d="M47.8509 209.088C47.1196 209.766 46.6604 210.691 46.5599 211.686C46.5114 211.94 46.557 212.202 46.6879 212.424C46.7852 212.525 46.9029 212.605 47.0333 212.658C47.1636 212.71 47.3036 212.734 47.4438 212.728C49.0372 212.787 50.3282 211.558 51.8285 210.972C52.5845 210.703 53.4102 210.621 54.1546 210.399C54.7477 210.235 55.4107 209.872 55.4339 209.228C55.4273 209.062 55.3829 208.9 55.3043 208.754C55.2256 208.608 55.1149 208.482 54.9804 208.386C54.7103 208.198 54.4059 208.067 54.0848 207.999C52.2123 207.473 49.3861 207.672 47.8509 209.088Z" fill="white"/>
<path d="M202.826 198.39C202.826 206.883 199.474 215.028 193.506 221.034C187.539 227.039 179.445 230.413 171.006 230.413C162.566 230.413 154.472 227.039 148.505 221.034C142.537 215.028 139.185 206.883 139.185 198.39C139.185 180.705 153.432 160.795 171.006 160.795C188.579 160.795 202.826 180.705 202.826 198.39Z" fill="#008DFF"/>
<path opacity="0.3" d="M202.826 198.39C202.826 206.883 199.474 215.028 193.506 221.034C187.539 227.039 179.445 230.413 171.006 230.413C162.566 230.413 154.472 227.039 148.505 221.034C142.537 215.028 139.185 206.883 139.185 198.39C139.185 180.705 153.432 160.795 171.006 160.795C188.579 160.795 202.826 180.705 202.826 198.39Z" fill="white"/>
<path opacity="0.3" d="M171.006 160.795C153.432 160.795 139.185 180.693 139.185 198.39C139.185 206.883 142.537 215.028 148.505 221.034C154.472 227.039 162.566 230.413 171.006 230.413C179.445 230.413 187.539 227.039 193.506 221.034C199.474 215.028 202.826 206.883 202.826 198.39C202.828 196.426 202.645 194.467 202.28 192.538C204.129 202.018 189.01 215.654 171.006 206.267C153.002 196.88 156.212 166.741 171.006 160.795Z" fill="#008DFF"/>
<path opacity="0.6" d="M173.494 230.308C173.96 230.308 174.413 230.226 174.867 230.168L175.448 230.097C175.96 230.027 176.46 229.945 176.972 229.84L177.309 229.781C177.914 229.664 178.53 229.512 179.135 229.36L179.507 229.255L180.938 228.822L181.415 228.658C181.88 228.494 182.345 228.318 182.81 228.131L183.148 227.991C184.309 227.512 185.439 226.96 186.532 226.34L186.823 226.176C187.288 225.907 187.742 225.626 188.195 225.334L188.439 225.182C189.506 224.466 190.528 223.684 191.498 222.841H191.556C192.022 222.443 192.475 222.053 192.917 221.67L193.045 221.541C194.447 220.193 195.72 218.716 196.848 217.129V217.059C197.22 216.532 197.581 215.994 197.918 215.443C197.279 216.251 186.218 229.723 164.981 222.677C143.116 215.408 141.58 181.43 153.42 167.877C144.802 175.25 139.126 187.294 139.126 198.46C139.127 206.382 142.045 214.023 147.316 219.907C152.587 225.791 159.838 229.501 167.668 230.32C168.761 230.425 169.854 230.484 170.947 230.484C171.587 230.484 172.227 230.484 172.866 230.425L173.494 230.308Z" fill="#008DFF"/>
<path opacity="0.3" d="M175.75 184.989C177.324 186.46 178.786 188.049 180.123 189.74C183.717 194.645 184.543 201.035 184.88 207.133C185.113 211.019 187.788 213.91 191.568 211.3C194.092 209.556 195.324 206.466 196.104 203.481C197.953 196.33 197.825 188.465 194.592 181.828C192.184 176.877 187.346 171.727 182.089 169.796C178.879 168.626 174.832 168.626 172.413 171.365C169.086 175.18 171.087 179.803 174.018 183.151C174.576 183.783 175.157 184.392 175.75 184.989Z" fill="white"/>
<path opacity="0.3" d="M178.123 218.908C178.171 219.384 178.327 219.843 178.579 220.249C178.831 220.655 179.172 220.997 179.577 221.249C179.895 221.43 180.241 221.557 180.6 221.623C183.264 222.173 186.415 220.757 187.043 217.972C187.193 217.474 187.228 216.949 187.144 216.436C187.06 215.924 186.861 215.437 186.561 215.014C186.261 214.591 185.868 214.243 185.414 213.997C184.959 213.751 184.454 213.613 183.938 213.594C183.062 213.584 182.193 213.763 181.391 214.118C180.588 214.473 179.871 214.997 179.286 215.654C178.558 216.446 178.144 217.479 178.123 218.557C178.116 218.674 178.116 218.791 178.123 218.908Z" fill="white"/>
<path d="M171.006 0C141.22 34.9026 117.634 69.2668 117.634 97.8138C117.634 126.361 141.523 149.501 171.006 149.501C200.489 149.501 224.378 126.361 224.378 97.8138C224.378 69.2668 200.791 34.9494 171.006 0Z" fill="#008DFF"/>
<path opacity="0.2" d="M171.006 0C141.22 34.9026 117.634 69.2668 117.634 97.8138C117.634 126.361 141.523 149.501 171.006 149.501C200.489 149.501 224.378 126.361 224.378 97.8138C224.378 69.2668 200.791 34.9494 171.006 0Z" fill="white"/>
<path opacity="0.2" d="M167.516 25.5859C162.213 31.9414 160.399 40.6963 160.003 48.9948C159.482 56.1759 160.388 63.3896 162.666 70.2149C166.318 80.2573 174.995 89.1058 186.206 89.2697C188.858 89.3191 191.482 88.7159 193.85 87.5124C196.217 86.3089 198.257 84.5415 199.791 82.3641C201.832 78.9545 202.94 75.0614 203.001 71.081C203.827 57.3283 198.593 43.7512 190.87 32.3628C185.939 25.0826 176.507 15.9766 168.482 24.4506C168.179 24.9071 167.865 25.2582 167.516 25.5859Z" fill="white"/>
<path d="M224.378 97.8139C224.256 90.4398 222.944 83.1346 220.493 76.1842C223.331 86.3202 210.991 122.276 175.134 112.105C139.278 101.934 132.835 55.8302 156.712 17.3929C134.021 46.1975 117.634 74.0306 117.634 97.8256C117.634 126.373 141.523 149.512 171.006 149.512C200.489 149.512 224.378 126.361 224.378 97.8139Z" fill="#008DFF"/>
<path opacity="0.1" d="M215.864 125.834C207.537 134.566 194.743 141.179 175.321 138.428C128.403 131.768 119.018 81.416 130.276 56.4154C122.367 71.0693 117.634 85.021 117.634 97.8139C117.634 126.361 141.523 149.501 171.006 149.501C179.838 149.56 188.549 147.432 196.372 143.305C204.194 139.178 210.888 133.178 215.864 125.834Z" fill="black"/>
<path opacity="0.3" d="M180.066 44.3129C181.124 48.6084 183.45 52.506 188.091 51.8505C189.59 51.621 190.97 50.892 192.01 49.7802C193.049 48.6683 193.688 47.2378 193.824 45.7174C194.028 42.9105 193.233 40.1222 191.58 37.852C190.096 35.4711 188.035 33.5094 185.59 32.152C184.838 31.7575 183.992 31.5834 183.147 31.6496C182.302 31.7158 181.492 32.0197 180.81 32.5265C180.224 33.0906 179.763 33.7735 179.458 34.5301C179.153 35.2868 179.012 36.0998 179.042 36.9157C179.097 39.413 179.441 41.8954 180.066 44.3129Z" fill="white"/>
<path opacity="0.3" d="M215.678 90.4168C216.457 103.292 215.317 117.267 206.792 126.818C205.129 128.679 202.989 130.411 200.5 130.422C197.255 130.422 194.685 127.403 193.917 124.219C193.15 121.036 193.743 117.723 194.08 114.481C194.895 106.617 194.196 98.6695 192.022 91.0722C190.161 84.588 187.207 78.3495 186.567 71.6312C185.927 64.9128 188.277 57.2465 194.301 54.2852C200.651 51.1836 206.757 57.5391 209.328 62.7124C213.445 71.0225 215.131 81.2405 215.678 90.4168Z" fill="white"/>
</svg>
